<?xml version="1.0" standalone="no"?>
<!DOCTYPE svg PUBLIC "-//W3C//DTD SVG 1.1//EN" "http://www.w3.org/Graphics/SVG/1.1/DTD/svg11.dtd" >
<svg xmlns="http://www.w3.org/2000/svg">
<metadata>Generated by IcoMoon</metadata>
<defs>
<font id="icomoon" horiz-adv-x="512">
<font-face units-per-em="512" ascent="480" descent="-32" />
<missing-glyph horiz-adv-x="512" />
<glyph unicode="&#x20;" d="" horiz-adv-x="256" />
<glyph unicode="&#xe000;" d="M488.432 373.32l-72.846 0.002-81.417-219.597c-0.715-3.606-2.5-6.491-5.357-8.654-4.285-5.769-10.356-8.654-18.212-8.654h-220.684c-7.142 0-13.034 2.344-17.676 7.031s-6.963 10.456-6.963 17.307 2.321 12.62 6.963 17.307 10.534 7.031 17.676 7.031h204.614l11.784 31.371h-249.608c-6.428 0-11.963 2.344-16.605 7.031s-6.963 10.277-6.963 16.767 2.321 12.080 6.963 16.767 10.177 7.031 16.605 7.031h266.748l12.855 34.616h-311.741c-6.428 0-11.963 2.344-16.605 7.031-4.642 4.69-6.963 10.279-6.963 16.77s2.321 12.080 6.963 16.767 10.177 7.031 16.605 7.031h329.954l21.426 59.497c3.571 10.818 10.713 16.226 21.426 16.226h91.059c6.428 0 11.963-2.344 16.605-7.031s6.962-10.276 6.962-16.767c0-6.491-2.321-12.26-6.963-17.308-4.642-5.049-10.177-7.572-16.605-7.572zM138.275 118.027c9.679 0 17.745-3.426 24.198-10.277s9.679-15.145 9.679-24.881c0-9.736-3.226-18.030-9.679-24.88s-14.519-10.277-24.198-10.277-17.925 3.426-24.736 10.277-10.217 15.145-10.217 24.88c0 9.736 3.406 18.030 10.217 24.881s15.056 10.277 24.736 10.277zM317.878 118.027c9.679 0 17.925-3.426 24.736-10.277s10.217-14.964 10.217-24.34-3.406-17.489-10.217-24.34-15.057-10.277-24.736-10.277-17.925 3.426-24.736 10.277-10.217 14.964-10.217 24.34 3.406 17.489 10.217 24.34c6.812 6.852 15.057 10.277 24.736 10.277z" />
<glyph unicode="&#xe001;" d="M484.033 216.854c0-4.995-0.715-9.634-2.137-13.914l-30.942-116.65c-4.268-17.123-13.87-31.035-28.807-41.737s-30.586-16.053-46.945-16.053h-231.527c-17.071 0-32.72 5.351-46.945 16.053-14.226 10.702-23.473 24.614-27.74 41.737l-29.875 116.65c-1.422 3.567-2.134 7.491-2.134 11.772-9.958 2.14-18.315 7.491-25.072 16.053s-10.136 18.549-10.136 29.964c0 12.842 4.090 23.723 12.27 32.64 8.18 8.918 17.961 13.377 29.342 13.377h56.548c-1.422-13.556 2.846-25.328 12.803-35.316 8.536-9.275 19.027-13.912 31.475-13.912s22.939 4.637 31.475 13.912l34.142 35.316h84.288l33.075-33.175c8.536-9.275 19.027-13.912 31.475-13.912s22.939 4.637 31.475 13.912c8.536 9.275 12.803 20.333 12.803 33.175h67.217c11.381 0 21.162-4.459 29.342-13.377s12.27-19.798 12.27-32.64c0-9.988-2.489-18.906-7.469-26.753-4.979-7.848-11.736-13.555-20.271-17.122v0zM182.085 107.694l-26.672 94.175c-1.422 5.707-4.801 10.167-10.136 13.377s-11.025 3.924-17.071 2.14c-6.046-1.784-10.492-5.173-13.338-10.168s-3.557-10.345-2.135-16.053l25.607-94.175c2.134-5.707 5.69-10.167 10.669-13.377s10.492-3.924 16.539-2.14c6.046 1.784 10.669 5.173 13.87 10.168s4.089 10.346 2.667 16.053zM279.178 198.659c0 5.707-2.134 10.702-6.402 14.982-4.268 4.281-9.424 6.421-15.471 6.421-6.046 0-11.381-2.14-16.004-6.421s-6.935-9.275-6.935-14.982v-98.456c0-5.707 2.312-10.702 6.935-14.982s9.958-6.421 16.004-6.421c6.046 0 11.203 2.14 15.471 6.421s6.402 9.275 6.402 14.982v98.456zM388.006 217.387c-5.69 1.784-11.203 1.070-16.538-2.14-5.335-3.211-9.069-7.67-11.203-13.377l-25.607-94.175c-1.422-5.707-0.533-11.058 2.667-16.053 3.201-4.995 7.647-8.384 13.337-10.168s11.203-1.070 16.538 2.14c5.335 3.211 8.714 7.67 10.136 13.377l26.674 94.175c1.422 5.707 0.533 11.058-2.667 16.053-3.201 4.995-7.647 8.384-13.337 10.168zM339.993 286.413l-86.422 89.895-86.422-89.895c-4.979-5.707-11.381-8.561-19.205-8.561s-14.404 2.854-19.738 8.561c-5.335 5.707-8.002 12.485-8.002 20.332s2.489 14.625 7.469 20.332l94.958 98.456c0 8.561 3.023 15.696 9.069 21.404 6.046 5.707 13.337 8.561 21.872 8.561 13.515 0 23.117-6.777 28.807-20.333 1.422-2.854 2.489-6.065 3.201-9.632l93.891-98.456c5.69-5.707 8.536-12.485 8.536-20.332s-2.846-14.625-8.536-20.332-12.27-8.561-19.738-8.561-14.050 2.854-19.74 8.561v0z" />
<glyph unicode="&#xe015;" d="M292.571 251.429v-18.286q0-3.714-2.714-6.429t-6.429-2.714h-64v-64q0-3.714-2.714-6.429t-6.429-2.714h-18.286q-3.714 0-6.429 2.714t-2.714 6.429v64h-64q-3.714 0-6.429 2.714t-2.714 6.429v18.286q0 3.714 2.714 6.429t6.429 2.714h64v64q0 3.714 2.714 6.429t6.429 2.714h18.286q3.714 0 6.429-2.714t2.714-6.429v-64h64q3.714 0 6.429-2.714t2.714-6.429zM329.143 242.286q0 52.857-37.571 90.429t-90.429 37.571-90.429-37.571-37.571-90.429 37.571-90.429 90.429-37.571 90.429 37.571 37.571 90.429zM475.429 4.571q0-15.143-10.714-25.857t-25.857-10.714q-15.429 0-25.714 10.857l-98 97.714q-51.143-35.429-114-35.429-40.857 0-78.143 15.857t-64.286 42.857-42.857 64.286-15.857 78.143 15.857 78.143 42.857 64.286 64.286 42.857 78.143 15.857 78.143-15.857 64.286-42.857 42.857-64.286 15.857-78.143q0-62.857-35.429-114l98-98q10.571-10.571 10.571-25.714z" horiz-adv-x="475" />
<glyph unicode="&#xe016;" d="M292.571 251.429v-18.286q0-3.714-2.714-6.429t-6.429-2.714h-164.571q-3.714 0-6.429 2.714t-2.714 6.429v18.286q0 3.714 2.714 6.429t6.429 2.714h164.571q3.714 0 6.429-2.714t2.714-6.429zM329.143 242.286q0 52.857-37.571 90.429t-90.429 37.571-90.429-37.571-37.571-90.429 37.571-90.429 90.429-37.571 90.429 37.571 37.571 90.429zM475.429 4.571q0-15.143-10.714-25.857t-25.857-10.714q-15.429 0-25.714 10.857l-98 97.714q-51.143-35.429-114-35.429-40.857 0-78.143 15.857t-64.286 42.857-42.857 64.286-15.857 78.143 15.857 78.143 42.857 64.286 64.286 42.857 78.143 15.857 78.143-15.857 64.286-42.857 42.857-64.286 15.857-78.143q0-62.857-35.429-114l98-98q10.571-10.571 10.571-25.714z" horiz-adv-x="475" />
<glyph unicode="&#xe017;" d="M438.857 224q0-44.571-17.429-85.143t-46.857-70-70-46.857-85.143-17.429-85.143 17.429-70 46.857-46.857 70-17.429 85.143q0 52 23 98t64.714 77.143q12.286 9.143 27.286 7.143t23.857-14.286q9.143-12 7-27t-14.143-24.143q-28-21.143-43.286-51.714t-15.286-65.143q0-29.714 11.571-56.714t31.286-46.714 46.714-31.286 56.714-11.571 56.714 11.571 46.714 31.286 31.286 46.714 11.571 56.714q0 34.571-15.286 65.143t-43.286 51.714q-12 9.143-14.143 24.143t7 27q8.857 12.286 24 14.286t27.143-7.143q41.714-31.143 64.714-77.143t23-98zM256 443.429v-182.857q0-14.857-10.857-25.714t-25.714-10.857-25.714 10.857-10.857 25.714v182.857q0 14.857 10.857 25.714t25.714 10.857 25.714-10.857 10.857-25.714z" horiz-adv-x="438" />
<glyph unicode="&#xe01a;" d="M146.286 269.714v-164.571q0-4-2.571-6.571t-6.571-2.571h-18.286q-4 0-6.571 2.571t-2.571 6.571v164.571q0 4 2.571 6.571t6.571 2.571h18.286q4 0 6.571-2.571t2.571-6.571zM219.429 269.714v-164.571q0-4-2.571-6.571t-6.571-2.571h-18.286q-4 0-6.571 2.571t-2.571 6.571v164.571q0 4 2.571 6.571t6.571 2.571h18.286q4 0 6.571-2.571t2.571-6.571zM292.571 269.714v-164.571q0-4-2.571-6.571t-6.571-2.571h-18.286q-4 0-6.571 2.571t-2.571 6.571v164.571q0 4 2.571 6.571t6.571 2.571h18.286q4 0 6.571-2.571t2.571-6.571zM329.143 62.857v270.857h-256v-270.857q0-6.286 2-11.571t4.143-7.714 3-2.429h237.714q0.857 0 3 2.429t4.143 7.714 2 11.571zM137.143 370.286h128l-13.714 33.429q-2 2.571-4.857 3.143h-90.571q-2.857-0.571-4.857-3.143zM402.286 361.143v-18.286q0-4-2.571-6.571t-6.571-2.571h-27.429v-270.857q0-23.714-13.429-41t-32.286-17.286h-237.714q-18.857 0-32.286 16.714t-13.429 40.429v272h-27.429q-4 0-6.571 2.571t-2.571 6.571v18.286q0 4 2.571 6.571t6.571 2.571h88.286l20 47.714q4.286 10.571 15.429 18t22.571 7.429h91.429q11.429 0 22.571-7.429t15.429-18l20-47.714h88.286q4 0 6.571-2.571t2.571-6.571z" horiz-adv-x="402" />
<glyph unicode="&#xe01b;" d="M402.286 196.571v-137.143q0-7.429-5.429-12.857t-12.857-5.429h-109.714v109.714h-73.143v-109.714h-109.714q-7.429 0-12.857 5.429t-5.429 12.857v137.143q0 0.286 0.143 0.857t0.143 0.857l164.286 135.429 164.286-135.429q0.286-0.571 0.286-1.714zM466 216.286l-17.714-21.143q-2.286-2.571-6-3.143h-0.857q-3.714 0-6 2l-197.714 164.857-197.714-164.857q-3.429-2.286-6.857-2-3.714 0.571-6 3.143l-17.714 21.143q-2.286 2.857-2 6.714t3.143 6.143l205.429 171.143q9.143 7.429 21.714 7.429t21.714-7.429l69.714-58.286v55.714q0 4 2.571 6.571t6.571 2.571h54.857q4 0 6.571-2.571t2.571-6.571v-116.571l62.571-52q2.857-2.286 3.143-6.143t-2-6.714z" horiz-adv-x="475" />
<glyph unicode="&#xe021;" d="M319.429 229.714q-2.286-5.714-8.571-5.714h-54.857v-100.571q0-4-2.571-6.571t-6.571-2.571h-54.857q-4 0-6.571 2.571t-2.571 6.571v100.571h-54.857q-4 0-6.571 2.571t-2.571 6.571q0 3.429 2.857 6.857l91.143 91.143q3.143 2.571 6.571 2.571t6.571-2.571l91.429-91.429q4.286-4.571 2-10zM219.429 379.429q-42.286 0-78-20.857t-56.571-56.571-20.857-78 20.857-78 56.571-56.571 78-20.857 78 20.857 56.571 56.571 20.857 78-20.857 78-56.571 56.571-78 20.857zM438.857 224q0-59.714-29.429-110.143t-79.857-79.857-110.143-29.429-110.143 29.429-79.857 79.857-29.429 110.143 29.429 110.143 79.857 79.857 110.143 29.429 110.143-29.429 79.857-79.857 29.429-110.143z" horiz-adv-x="438" />
<glyph unicode="&#xe023;" d="M338.286 224q0-10.571-9.143-15.714l-155.429-91.429q-4.286-2.571-9.143-2.571-4.571 0-9.143 2.286-9.143 5.429-9.143 16v182.857q0 10.571 9.143 16 9.429 5.143 18.286-0.286l155.429-91.429q9.143-5.143 9.143-15.714zM374.857 224q0 42.286-20.857 78t-56.571 56.571-78 20.857-78-20.857-56.571-56.571-20.857-78 20.857-78 56.571-56.571 78-20.857 78 20.857 56.571 56.571 20.857 78zM438.857 224q0-59.714-29.429-110.143t-79.857-79.857-110.143-29.429-110.143 29.429-79.857 79.857-29.429 110.143 29.429 110.143 79.857 79.857 110.143 29.429 110.143-29.429 79.857-79.857 29.429-110.143z" horiz-adv-x="438" />
<glyph unicode="&#xe024;" d="M438.857 406.857v-128q0-7.429-5.429-12.857t-12.857-5.429h-128q-12 0-16.857 11.429-4.857 11.143 4 19.714l39.429 39.429q-42.286 39.143-99.714 39.143-29.714 0-56.714-11.571t-46.714-31.286-31.286-46.714-11.571-56.714 11.571-56.714 31.286-46.714 46.714-31.286 56.714-11.571q34 0 64.286 14.857t51.143 42q2 2.857 6.571 3.429 4 0 7.143-2.571l39.143-39.429q2.571-2.286 2.714-5.857t-2.143-6.429q-31.143-37.714-75.429-58.429t-93.429-20.714q-44.571 0-85.143 17.429t-70 46.857-46.857 70-17.429 85.143 17.429 85.143 46.857 70 70 46.857 85.143 17.429q42 0 81.286-15.857t69.857-44.714l37.143 36.857q8.286 8.857 20 4 11.143-4.857 11.143-16.857z" horiz-adv-x="438" />
<glyph unicode="&#xe025;" d="M431.714 178.286q0-1.429-0.286-2-18.286-76.571-76.571-124.143t-136.571-47.571q-41.714 0-80.714 15.714t-69.571 44.857l-36.857-36.857q-5.429-5.429-12.857-5.429t-12.857 5.429-5.429 12.857v128q0 7.429 5.429 12.857t12.857 5.429h128q7.429 0 12.857-5.429t5.429-12.857-5.429-12.857l-39.143-39.143q20.286-18.857 46-29.143t53.429-10.286q38.286 0 71.429 18.571t53.143 51.143q3.143 4.857 15.143 33.429 2.286 6.571 8.571 6.571h54.857q3.714 0 6.429-2.714t2.714-6.429zM438.857 406.857v-128q0-7.429-5.429-12.857t-12.857-5.429h-128q-7.429 0-12.857 5.429t-5.429 12.857 5.429 12.857l39.429 39.429q-42.286 39.143-99.714 39.143-38.286 0-71.429-18.571t-53.143-51.143q-3.143-4.857-15.143-33.429-2.286-6.571-8.571-6.571h-56.857q-3.714 0-6.429 2.714t-2.714 6.429v2q18.571 76.571 77.143 124.143t137.143 47.571q41.714 0 81.143-15.857t70-44.714l37.143 36.857q5.429 5.429 12.857 5.429t12.857-5.429 5.429-12.857z" horiz-adv-x="438" />
<glyph unicode="&#xe036;" d="M402.286 197.429v-74q0-34-24.143-58.143t-58.143-24.143h-237.714q-34 0-58.143 24.143t-24.143 58.143v237.714q0 34 24.143 58.143t58.143 24.143h72.857q3.714 0 6.429-2.714t2.714-6.429q0-7.714-7.429-9.143-22-7.429-38-17.143-2.857-1.143-4.571-1.143h-32q-18.857 0-32.286-13.429t-13.429-32.286v-237.714q0-18.857 13.429-32.286t32.286-13.429h237.714q18.857 0 32.286 13.429t13.429 32.286v61.143q0 5.429 5.143 8.286 8 3.714 15.429 10.571 4.571 4.571 10 2.286 6-2.571 6-8.286zM470 339.143l-109.714-109.714q-5.143-5.429-12.857-5.429-3.429 0-7.143 1.429-11.143 4.857-11.143 16.857v54.857h-45.714q-92.286 0-125.143-37.429-34-39.143-21.143-135.143 0.857-6.571-5.714-9.714-2.286-0.571-3.429-0.571-4.571 0-7.429 3.714-2.857 4-6 8.857t-11.286 19.571-14.143 28.429-11 32.571-5 34.857q0 14 1 26t4 25.714 8 25.143 13.429 23.286 19.571 21.143 27 17.571 35.571 13.857 45.571 8.714 56.143 3.143h45.714v54.857q0 12 11.143 16.857 3.714 1.429 7.143 1.429 7.429 0 12.857-5.429l109.714-109.714q5.429-5.429 5.429-12.857t-5.429-12.857z" horiz-adv-x="475" />
<glyph unicode="&#xe037;" d="M402.286 214.286v-90.857q0-34-24.143-58.143t-58.143-24.143h-237.714q-34 0-58.143 24.143t-24.143 58.143v237.714q0 34 24.143 58.143t58.143 24.143h237.714q18 0 33.429-7.143 4.286-2 5.143-6.571 0.857-4.857-2.571-8.286l-14-14q-2.857-2.857-6.571-2.857-0.857 0-2.571 0.571-6.571 1.714-12.857 1.714h-237.714q-18.857 0-32.286-13.429t-13.429-32.286v-237.714q0-18.857 13.429-32.286t32.286-13.429h237.714q18.857 0 32.286 13.429t13.429 32.286v72.571q0 3.714 2.571 6.286l18.286 18.286q2.857 2.857 6.571 2.857 1.714 0 3.429-0.857 5.714-2.286 5.714-8.286zM468.286 354l-232.571-232.571q-6.857-6.857-16.286-6.857t-16.286 6.857l-122.857 122.857q-6.857 6.857-6.857 16.286t6.857 16.286l31.429 31.429q6.857 6.857 16.286 6.857t16.286-6.857l75.143-75.143 184.857 184.857q6.857 6.857 16.286 6.857t16.286-6.857l31.429-31.429q6.857-6.857 6.857-16.286t-6.857-16.286z" horiz-adv-x="475" />
<glyph unicode="&#xe045;" d="M347.429 205.714v36.571q0 7.429-5.429 12.857t-12.857 5.429h-73.143v73.143q0 7.429-5.429 12.857t-12.857 5.429h-36.571q-7.429 0-12.857-5.429t-5.429-12.857v-73.143h-73.143q-7.429 0-12.857-5.429t-5.429-12.857v-36.571q0-7.429 5.429-12.857t12.857-5.429h73.143v-73.143q0-7.429 5.429-12.857t12.857-5.429h36.571q7.429 0 12.857 5.429t5.429 12.857v73.143h73.143q7.429 0 12.857 5.429t5.429 12.857zM438.857 224q0-59.714-29.429-110.143t-79.857-79.857-110.143-29.429-110.143 29.429-79.857 79.857-29.429 110.143 29.429 110.143 79.857 79.857 110.143 29.429 110.143-29.429 79.857-79.857 29.429-110.143z" horiz-adv-x="438" />
<glyph unicode="&#xe046;" d="M347.429 205.714v36.571q0 7.429-5.429 12.857t-12.857 5.429h-219.429q-7.429 0-12.857-5.429t-5.429-12.857v-36.571q0-7.429 5.429-12.857t12.857-5.429h219.429q7.429 0 12.857 5.429t5.429 12.857zM438.857 224q0-59.714-29.429-110.143t-79.857-79.857-110.143-29.429-110.143 29.429-79.857 79.857-29.429 110.143 29.429 110.143 79.857 79.857 110.143 29.429 110.143-29.429 79.857-79.857 29.429-110.143z" horiz-adv-x="438" />
<glyph unicode="&#xe056;" d="M402.286 269.714v-54.857q0-11.429-8-19.429t-19.429-8h-118.857v-118.857q0-11.429-8-19.429t-19.429-8h-54.857q-11.429 0-19.429 8t-8 19.429v118.857h-118.857q-11.429 0-19.429 8t-8 19.429v54.857q0 11.429 8 19.429t19.429 8h118.857v118.857q0 11.429 8 19.429t19.429 8h54.857q11.429 0 19.429-8t8-19.429v-118.857h118.857q11.429 0 19.429-8t8-19.429z" horiz-adv-x="402" />
<glyph unicode="&#xe059;" d="M219.429 443.429q59.714 0 110.143-29.429t79.857-79.857 29.429-110.143-29.429-110.143-79.857-79.857-110.143-29.429-110.143 29.429-79.857 79.857-29.429 110.143 29.429 110.143 79.857 79.857 110.143 29.429zM256 87.143v54.286q0 4-2.571 6.714t-6.286 2.714h-54.857q-3.714 0-6.571-2.857t-2.857-6.571v-54.286q0-3.714 2.857-6.571t6.571-2.857h54.857q3.714 0 6.286 2.714t2.571 6.714zM255.429 185.429l5.143 177.429q0 3.429-2.857 5.143-2.857 2.286-6.857 2.286h-62.857q-4 0-6.857-2.286-2.857-1.714-2.857-5.143l4.857-177.429q0-2.857 2.857-5t6.857-2.143h52.857q4 0 6.714 2.143t3 5z" horiz-adv-x="438" />
<glyph unicode="&#xe05f;" d="M292.571 87.143v54.286q0 4-2.714 6.714t-6.429 2.714h-54.857q-3.714 0-6.429-2.714t-2.714-6.714v-54.286q0-4 2.714-6.714t6.429-2.714h54.857q3.714 0 6.429 2.714t2.714 6.714zM292 194l5.143 131.143q0 3.429-2.857 5.429-3.714 3.143-6.857 3.143h-62.857q-3.143 0-6.857-3.143-2.857-2-2.857-6l4.857-130.571q0-2.857 2.857-4.714t6.857-1.857h52.857q4 0 6.714 1.857t3 4.714zM288 460.857l219.429-402.286q10-18-0.571-36-4.857-8.286-13.286-13.143t-18.143-4.857h-438.857q-9.714 0-18.143 4.857t-13.286 13.143q-10.571 18-0.571 36l219.429 402.286q4.857 8.857 13.429 14t18.571 5.143 18.571-5.143 13.429-14z" />
<glyph unicode="&#xe060;" d="M393.143 434.286q12.571-14.857 3.429-42.286t-30.857-49.143l-46-46 45.714-198.857q1.429-5.429-3.429-9.429l-36.571-27.429q-2-1.714-5.429-1.714-1.143 0-2 0.286-4.286 0.857-6 4.571l-79.714 145.143-74-74 15.143-55.429q1.429-4.857-2.286-8.857l-27.429-27.429q-2.571-2.571-6.571-2.571h-0.571q-4.286 0.571-6.857 3.714l-54 72-72 54q-3.143 2-3.714 6.571-0.286 3.714 2.571 7.143l27.429 27.714q2.571 2.571 6.571 2.571 1.714 0 2.286-0.286l55.429-15.143 74 74-145.143 79.714q-4 2.286-4.857 6.857-0.571 4.571 2.571 7.714l36.571 36.571q4 3.714 8.571 2.286l190-45.429 45.714 45.714q21.714 21.714 49.143 30.857t42.286-3.429z" horiz-adv-x="402" />
<glyph unicode="&#xe078;" d="M182.857 68.571q0-1.143 0.286-5.714t0.143-7.571-0.857-6.714-2.857-5.571-5.857-1.857h-91.429q-34 0-58.143 24.143t-24.143 58.143v201.143q0 34 24.143 58.143t58.143 24.143h91.429q3.714 0 6.429-2.714t2.714-6.429q0-1.143 0.286-5.714t0.143-7.571-0.857-6.714-2.857-5.571-5.857-1.857h-91.429q-18.857 0-32.286-13.429t-13.429-32.286v-201.143q0-18.857 13.429-32.286t32.286-13.429h89.143t3.286-0.286 3.286-0.857 2.286-1.571 2-2.571 0.571-3.857zM448 224q0-7.429-5.429-12.857l-155.429-155.429q-5.429-5.429-12.857-5.429t-12.857 5.429-5.429 12.857v82.286h-128q-7.429 0-12.857 5.429t-5.429 12.857v109.714q0 7.429 5.429 12.857t12.857 5.429h128v82.286q0 7.429 5.429 12.857t12.857 5.429 12.857-5.429l155.429-155.429q5.429-5.429 5.429-12.857z" horiz-adv-x="475" />
<glyph unicode="&#xe07a;" d="M137.143 233.143v128q0 4-2.571 6.571t-6.571 2.571-6.571-2.571-2.571-6.571v-128q0-4 2.571-6.571t6.571-2.571 6.571 2.571 2.571 6.571zM329.143 132.571q0-7.429-5.429-12.857t-12.857-5.429h-122.571l-14.571-138q-0.571-3.429-3-5.857t-5.857-2.429h-0.286q-7.714 0-9.143 7.714l-21.714 138.571h-115.429q-7.429 0-12.857 5.429t-5.429 12.857q0 35.143 22.429 63.286t50.714 28.143v146.286q-14.857 0-25.714 10.857t-10.857 25.714 10.857 25.714 25.714 10.857h182.857q14.857 0 25.714-10.857t10.857-25.714-10.857-25.714-25.714-10.857v-146.286q28.286 0 50.714-28.143t22.429-63.286z" horiz-adv-x="329" />
<glyph unicode="&#xe07b;" d="M402.286 214.857v-91.429q0-34-24.143-58.143t-58.143-24.143h-237.714q-34 0-58.143 24.143t-24.143 58.143v237.714q0 34 24.143 58.143t58.143 24.143h201.143q4 0 6.571-2.571t2.571-6.571v-18.286q0-4-2.571-6.571t-6.571-2.571h-201.143q-18.857 0-32.286-13.429t-13.429-32.286v-237.714q0-18.857 13.429-32.286t32.286-13.429h237.714q18.857 0 32.286 13.429t13.429 32.286v91.429q0 4 2.571 6.571t6.571 2.571h18.286q4 0 6.571-2.571t2.571-6.571zM512 461.714v-146.286q0-7.429-5.429-12.857t-12.857-5.429-12.857 5.429l-50.286 50.286-186.286-186.286q-2.857-2.857-6.571-2.857t-6.571 2.857l-32.571 32.571q-2.857 2.857-2.857 6.571t2.857 6.571l186.286 186.286-50.286 50.286q-5.429 5.429-5.429 12.857t5.429 12.857 12.857 5.429h146.286q7.429 0 12.857-5.429t5.429-12.857z" />
<glyph unicode="&#xe07c;" d="M338.286 224q0-7.429-5.429-12.857l-155.429-155.429q-5.429-5.429-12.857-5.429t-12.857 5.429-5.429 12.857v82.286h-128q-7.429 0-12.857 5.429t-5.429 12.857v109.714q0 7.429 5.429 12.857t12.857 5.429h128v82.286q0 7.429 5.429 12.857t12.857 5.429 12.857-5.429l155.429-155.429q5.429-5.429 5.429-12.857zM438.857 324.571v-201.143q0-34-24.143-58.143t-58.143-24.143h-91.429q-3.714 0-6.429 2.714t-2.714 6.429q0 1.143-0.286 5.714t-0.143 7.571 0.857 6.714 2.857 5.571 5.857 1.857h91.429q18.857 0 32.286 13.429t13.429 32.286v201.143q0 18.857-13.429 32.286t-32.286 13.429h-89.143t-3.286 0.286-3.286 0.857-2.286 1.571-2 2.571-0.571 3.857q0 1.143-0.286 5.714t-0.143 7.571 0.857 6.714 2.857 5.571 5.857 1.857h91.429q34 0 58.143-24.143t24.143-58.143z" horiz-adv-x="438" />
<glyph unicode="&#xe07d;" d="M130.857 227.714q-21.143 46.286-21.143 106h-73.143v-27.429q0-22.286 27-46.286t67.286-32.286zM438.857 306.286v27.429h-73.143q0-59.714-21.143-106 40.286 8.286 67.286 32.286t27 46.286zM475.429 342.857v-36.571q0-20.286-11.857-40.857t-32-37.143-49.429-27.857-61.571-12.714q-12-15.429-27.143-27.143-10.857-9.714-15-20.714t-4.143-25.571q0-15.429 8.714-26t27.857-10.571q21.429 0 38.143-13t16.714-32.714v-18.286q0-4-2.571-6.571t-6.571-2.571h-237.714q-4 0-6.571 2.571t-2.571 6.571v18.286q0 19.714 16.714 32.714t38.143 13q19.143 0 27.857 10.571t8.714 26q0 14.571-4.143 25.571t-15 20.714q-15.143 11.714-27.143 27.143-32.286 1.429-61.571 12.714t-49.429 27.857-32 37.143-11.857 40.857v36.571q0 11.429 8 19.429t19.429 8h82.286v27.429q0 18.857 13.429 32.286t32.286 13.429h164.571q18.857 0 32.286-13.429t13.429-32.286v-27.429h82.286q11.429 0 19.429-8t8-19.429z" horiz-adv-x="475" />
<glyph unicode="&#xe084;" d="M365.714 139.143q0 3.143-0.571 4.571-0.857 2.286-11 8.429t-25.286 14.143l-15.143 8.286q-1.429 0.857-5.429 3.714t-7.143 4.286-6 1.429q-5.143 0-13.429-9.286t-16.286-18.714-12.571-9.429q-2 0-4.714 1t-4.429 1.857-4.857 2.714-4 2.429q-28.286 15.714-48.714 36.143t-36.143 48.714q-0.571 0.857-2.429 4t-2.714 4.857-1.857 4.429-1 4.714q0 3.714 5.857 9.571t12.857 11 12.857 11.286 5.857 10.429q0 2.857-1.429 6t-4.286 7.143-3.714 5.429q-0.857 1.714-4.286 8.143t-7.143 13-7.571 13.571-7.143 11.571-4.714 5.143-4.571 0.571q-13.714 0-28.857-6.286-13.143-6-22.857-27t-9.714-37.286q0-4.571 0.714-9.714t1.429-8.714 2.571-9.429 2.857-8.429 3.571-9.429 3.143-8.571q17.143-46.857 61.857-91.571t91.571-61.857q1.714-0.571 8.571-3.143t9.429-3.571 8.429-2.857 9.429-2.571 8.714-1.429 9.714-0.714q16.286 0 37.286 9.714t27 22.857q6.286 15.143 6.286 28.857zM438.857 361.143v-274.286q0-34-24.143-58.143t-58.143-24.143h-274.286q-34 0-58.143 24.143t-24.143 58.143v274.286q0 34 24.143 58.143t58.143 24.143h274.286q34 0 58.143-24.143t24.143-58.143z" horiz-adv-x="438" />
<glyph unicode="&#xe08d;" d="M242.286-4.571q0 4.571-4.571 4.571-16.857 0-29 12.143t-12.143 29q0 4.571-4.571 4.571t-4.571-4.571q0-20.857 14.714-35.571t35.571-14.714q4.571 0 4.571 4.571zM52.286 77.714h370.857q-46.857 51.714-70.429 117.571t-23.571 138.429q0 73.143-91.429 73.143t-91.429-73.143q0-72.571-23.571-138.429t-70.429-117.571zM475.429 77.714q0-14.857-10.857-25.714t-25.714-10.857h-128q0-30.286-21.429-51.714t-51.714-21.429-51.714 21.429-21.429 51.714h-128q-14.857 0-25.714 10.857t-10.857 25.714q54.286 46 82 113.571t27.714 142.429q0 47.143 27.429 74.857t75.429 33.429q-2.286 5.143-2.286 10.571 0 11.429 8 19.429t19.429 8 19.429-8 8-19.429q0-5.429-2.286-10.571 48-5.714 75.429-33.429t27.429-74.857q0-74.857 27.714-142.429t82-113.571z" horiz-adv-x="475" />
<glyph unicode="&#xe08e;" d="M393.143 224l39.429-38.571q8.571-8 5.714-20-3.429-11.714-14.857-14.571l-53.714-13.714 15.143-53.143q3.429-11.714-5.429-20-8.286-8.857-20-5.429l-53.143 15.143-13.714-53.714q-2.857-11.429-14.571-14.857-3.429-0.571-5.429-0.571-8.857 0-14.571 6.286l-38.571 39.429-38.571-39.429q-8-8.571-20-5.714-11.714 3.143-14.571 14.857l-13.714 53.714-53.143-15.143q-11.714-3.429-20 5.429-8.857 8.286-5.429 20l15.143 53.143-53.714 13.714q-11.429 2.857-14.857 14.571-2.857 12 5.714 20l39.429 38.571-39.429 38.571q-8.571 8-5.714 20 3.429 11.714 14.857 14.571l53.714 13.714-15.143 53.143q-3.429 11.714 5.429 20 8.286 8.857 20 5.429l53.143-15.143 13.714 53.714q2.857 11.714 14.571 14.571 11.714 3.429 20-5.429l38.571-39.714 38.571 39.714q8.286 8.571 20 5.429 11.714-2.857 14.571-14.571l13.714-53.714 53.143 15.143q11.714 3.429 20-5.429 8.857-8.286 5.429-20l-15.143-53.143 53.714-13.714q11.429-2.857 14.857-14.571 2.857-12-5.714-20z" horiz-adv-x="438" />
<glyph unicode="&#xe093;" d="M365.714 205.714v36.571q0 7.429-5.429 12.857t-12.857 5.429h-143.429l54 54q5.429 5.429 5.429 12.857t-5.429 12.857l-26 26q-5.143 5.143-12.857 5.143t-12.857-5.143l-129.429-129.429q-5.143-5.143-5.143-12.857t5.143-12.857l129.429-129.429q5.143-5.143 12.857-5.143t12.857 5.143l26 26q5.143 5.143 5.143 12.857t-5.143 12.857l-54 54h143.429q7.429 0 12.857 5.429t5.429 12.857zM438.857 224q0-59.714-29.429-110.143t-79.857-79.857-110.143-29.429-110.143 29.429-79.857 79.857-29.429 110.143 29.429 110.143 79.857 79.857 110.143 29.429 110.143-29.429 79.857-79.857 29.429-110.143z" horiz-adv-x="438" />
<glyph unicode="&#xe094;" d="M367.143 224q0 7.714-5.143 12.857l-129.429 129.429q-5.143 5.143-12.857 5.143t-12.857-5.143l-26-26q-5.143-5.143-5.143-12.857t5.143-12.857l54-54h-143.429q-7.429 0-12.857-5.429t-5.429-12.857v-36.571q0-7.429 5.429-12.857t12.857-5.429h143.429l-54-54q-5.429-5.429-5.429-12.857t5.429-12.857l26-26q5.143-5.143 12.857-5.143t12.857 5.143l129.429 129.429q5.143 5.143 5.143 12.857zM438.857 224q0-59.714-29.429-110.143t-79.857-79.857-110.143-29.429-110.143 29.429-79.857 79.857-29.429 110.143 29.429 110.143 79.857 79.857 110.143 29.429 110.143-29.429 79.857-79.857 29.429-110.143z" horiz-adv-x="438" />
<glyph unicode="&#xe095;" d="M366.857 224.286q0 7.714-5.143 12.857l-129.429 129.429q-5.143 5.143-12.857 5.143t-12.857-5.143l-129.429-129.429q-5.143-5.143-5.143-12.857t5.143-12.857l26-26q5.143-5.143 12.857-5.143t12.857 5.143l54 54v-143.429q0-7.429 5.429-12.857t12.857-5.429h36.571q7.429 0 12.857 5.429t5.429 12.857v143.429l54-54q5.429-5.429 12.857-5.429t12.857 5.429l26 26q5.143 5.143 5.143 12.857zM438.857 224q0-59.714-29.429-110.143t-79.857-79.857-110.143-29.429-110.143 29.429-79.857 79.857-29.429 110.143 29.429 110.143 79.857 79.857 110.143 29.429 110.143-29.429 79.857-79.857 29.429-110.143z" horiz-adv-x="438" />
<glyph unicode="&#xe096;" d="M366.857 223.714q0 7.714-5.143 12.857l-26 26q-5.143 5.143-12.857 5.143t-12.857-5.143l-54-54v143.429q0 7.429-5.429 12.857t-12.857 5.429h-36.571q-7.429 0-12.857-5.429t-5.429-12.857v-143.429l-54 54q-5.429 5.429-12.857 5.429t-12.857-5.429l-26-26q-5.143-5.143-5.143-12.857t5.143-12.857l129.429-129.429q5.143-5.143 12.857-5.143t12.857 5.143l129.429 129.429q5.143 5.143 5.143 12.857zM438.857 224q0-59.714-29.429-110.143t-79.857-79.857-110.143-29.429-110.143 29.429-79.857 79.857-29.429 110.143 29.429 110.143 79.857 79.857 110.143 29.429 110.143-29.429 79.857-79.857 29.429-110.143z" horiz-adv-x="438" />
<glyph unicode="&#xe0ad;" d="M182.857 77.714q0 14.857-10.857 25.714t-25.714 10.857-25.714-10.857-10.857-25.714 10.857-25.714 25.714-10.857 25.714 10.857 10.857 25.714zM73.143 224h109.714v73.143h-45.143q-3.714 0-6.286-2.571l-55.714-55.714q-2.571-2.571-2.571-6.286v-8.571zM438.857 77.714q0 14.857-10.857 25.714t-25.714 10.857-25.714-10.857-10.857-25.714 10.857-25.714 25.714-10.857 25.714 10.857 10.857 25.714zM512 388.571v-292.571q0-4.286-1.143-7.571t-3.857-5.286-4.714-3.286-6.714-1.714-6.429-0.571-7.286 0-6.429 0.143q0-30.286-21.429-51.714t-51.714-21.429-51.714 21.429-21.429 51.714h-109.714q0-30.286-21.429-51.714t-51.714-21.429-51.714 21.429-21.429 51.714h-18.286q-0.857 0-6.429-0.143t-7.286 0-6.429 0.571-6.714 1.714-4.714 3.286-3.857 5.286-1.143 7.571q0 7.429 5.429 12.857t12.857 5.429v91.429q0 2.286-0.143 10t0 10.857 0.714 9.857 1.857 10.571 4 8.714 6.429 8.571l56.571 56.571q5.429 5.429 14.429 9.143t16.714 3.714h45.714v54.857q0 7.429 5.429 12.857t12.857 5.429h292.571q7.429 0 12.857-5.429t5.429-12.857z" />
<glyph unicode="&#xe0af;" d="M356.571 443.429q34 0 58.143-24.143t24.143-58.143v-274.286q0-34-24.143-58.143t-58.143-24.143h-207.143q24.286 34.857 30.857 60 2.571 9.714 15.143 59.714 6-11.143 21-19.143t32.143-8q51.714 0 84.429 42.143t32.714 106.714q0 24-10 46.429t-27.571 39.714-43.571 27.714-56.286 10.429q-29.714 0-55.571-8.143t-43.714-21.857-30.714-31.286-19-36.571-6.143-37.857q0-29.143 11.286-51.429t33.286-31.429q3.714-1.429 6.714 0t4.143 5.429q2.857 12.571 4.286 17.429 1.714 6.571-3.143 12-14.286 17.714-14.286 42.857 0 42.857 29.571 73.286t77.286 30.429q42.571 0 66.429-23.143t23.857-60q0-48-19.286-81.714t-49.571-33.714q-17.143 0-27.714 12.429t-6.571 29.571q2.286 9.714 7.571 26.429t8.429 29.143 3.143 21.286q0 14-7.571 23.286t-21.571 9.286q-17.429 0-29.571-16.143t-12.143-39.857q0-20.571 6.857-34.571l-28-118.286q-6.857-28.571-2-72.571h-52.286q-34 0-58.143 24.143t-24.143 58.143v274.286q0 34 24.143 58.143t58.143 24.143h274.286z" horiz-adv-x="438" />
<glyph unicode="&#xe0b0;" d="M193.714 24.857q0-10.857-2.857-20.286h-108.571q-27.143 0-49 16.143t-29.571 42.143q6.857 12.857 19.714 22.143t28.571 14.143 30.571 6.857 30.571 2q9.143 0 14-0.571 1.714-1.143 8.714-6t9.429-6.571 8.857-6.571 9.143-7.286 7.857-7.286 7.571-8.429 6-8.714 5-9.857 2.714-10.286 1.286-11.571zM110 125.143q-66.857-2-110-24.286v123.714q29.429-33.714 78-33.714 9.143 0 20 1.429-6-17.429-6-24.571 0-19.143 18-42.571zM159.429 271.143q0-28.571-12.429-45.857t-40.143-17.286q-14.571 0-27.714 7.429t-22.286 19.286-16 26.714-10.143 29.714-3.286 28.286q0 27.429 14.714 47.143t41.286 19.714q18.857 0 34-11.714t24-29.714 13.429-37.143 4.571-36.571zM438.857 297.143v-210.286q0-34-24.143-58.143t-58.143-24.143h-133.714q11.143 20.857 11.143 44.857 0 18.857-6.286 35t-15.857 26.571-20.571 20.286-20.571 17-15.857 15.571-6.286 17q0 10.286 6.571 19.429t16 17.571 18.714 18.429 15.857 26.571 6.571 37.429-7.571 41.571-21.571 33.857q-1.714 1.714-4 3.143t-3.571 2.143-2.857 2.714-3 4.857h38.571l38.571 18.286h-124.857q-39.429 0-69.857-11t-52.143-38.143q0 36 23.143 60.857t59.143 24.857h274.286q34 0 58.143-24.143t24.143-58.143v-27.429h-73.143v73.143h-36.571v-73.143h-73.143v-36.571h73.143v-73.143h36.571v73.143h73.143z" horiz-adv-x="438" />
<glyph unicode="&#xe0b2;" d="M219.429 150.857h109.714v27.429h-36.571v128h-32.571l-42.286-39.143 22-22.857q12 10.571 15.714 16.286h0.571v-82.286h-36.571v-27.429zM365.714 224q0-20-6-40.571t-17-38.286-29-28.857-39.429-11.143-39.429 11.143-29 28.857-17 38.286-6 40.571 6 40.571 17 38.286 29 28.857 39.429 11.143 39.429-11.143 29-28.857 17-38.286 6-40.571zM512 150.857v146.286q-30.286 0-51.714 21.429t-21.429 51.714h-329.143q0-30.286-21.429-51.714t-51.714-21.429v-146.286q30.286 0 51.714-21.429t21.429-51.714h329.143q0 30.286 21.429 51.714t51.714 21.429zM548.571 388.571v-329.143q0-7.429-5.429-12.857t-12.857-5.429h-512q-7.429 0-12.857 5.429t-5.429 12.857v329.143q0 7.429 5.429 12.857t12.857 5.429h512q7.429 0 12.857-5.429t5.429-12.857z" horiz-adv-x="548" />
<glyph unicode="&#xe0bd;" d="M438.857 224q0-44.571-17.429-85.143t-46.857-70-70-46.857-85.143-17.429q-49.143 0-93.429 20.714t-75.429 58.429q-2 2.857-1.857 6.429t2.429 5.857l39.143 39.429q2.857 2.571 7.143 2.571 4.571-0.571 6.571-3.429 20.857-27.143 51.143-42t64.286-14.857q29.714 0 56.714 11.571t46.714 31.286 31.286 46.714 11.571 56.714-11.571 56.714-31.286 46.714-46.714 31.286-56.714 11.571q-28 0-53.714-10.143t-45.714-29l39.143-39.429q8.857-8.571 4-19.714-4.857-11.429-16.857-11.429h-128q-7.429 0-12.857 5.429t-5.429 12.857v128q0 12 11.429 16.857 11.143 4.857 19.714-4l37.143-36.857q30.571 28.857 69.857 44.714t81.286 15.857q44.571 0 85.143-17.429t70-46.857 46.857-70 17.429-85.143z" horiz-adv-x="438" />
<glyph unicode="&#xe0c6;" d="M210.286 315.429q0-3.714-2.714-6.429t-6.429-2.714-6.429 2.714-2.714 6.429q0 13.143-15.429 20.286t-30.286 7.143q-3.714 0-6.429 2.714t-2.714 6.429 2.714 6.429 6.429 2.714q14.286 0 28.429-4.571t24.857-15.429 10.714-25.714zM256 315.429q0 20.571-9.857 38.286t-25.714 29-35.143 17.714-39 6.429-39-6.429-35.143-17.714-25.714-29-9.857-38.286q0-28.857 19.429-51.429 2.857-3.143 8.714-9.429t8.714-9.429q36.571-43.714 40.286-85.143h65.143q3.714 41.429 40.286 85.143 2.857 3.143 8.714 9.429t8.714 9.429q19.429 22.571 19.429 51.429zM292.571 315.429q0-44.286-29.429-76.571-12.857-14-21.286-24.857t-17-27.286-9.714-30.714q13.429-8 13.429-23.429 0-10.571-7.143-18.286 7.143-7.714 7.143-18.286 0-14.857-12.857-23.143 3.714-6.571 3.714-13.429 0-13.143-9-20.286t-22.143-7.143q-5.714-12.571-17.143-20t-24.857-7.429-24.857 7.429-17.143 20q-13.143 0-22.143 7.143t-9 20.286q0 6.857 3.714 13.429-12.857 8.286-12.857 23.143 0 10.571 7.143 18.286-7.143 7.714-7.143 18.286 0 15.429 13.429 23.429-1.143 14.286-9.714 30.714t-17 27.286-21.286 24.857q-29.429 32.286-29.429 76.571 0 28.286 12.714 52.714t33.429 40.571 46.857 25.429 53.286 9.286 53.286-9.286 46.857-25.429 33.429-40.571 12.714-52.714z" horiz-adv-x="292" />
<glyph unicode="&#xe14f;" d="M512 176l-96 96v144h-64v-80l-96 96-256-256v-16h64v-160h160v96h64v-96h160v160h64z" />
<glyph unicode="&#xe17e;" d="M64 16c0-26.51 21.49-48 48-48s48 21.49 48 48c0 26.51-21.49 48-48 48s-48-21.49-48-48zM384 16c0-26.51 21.49-48 48-48s48 21.49 48 48c0 26.51-21.49 48-48 48s-48-21.49-48-48zM480 224v192h-416c0 35.346-28.653 64-64 64v-32c17.645 0 32-14.355 32-32l24.037-206.027c-14.647-11.729-24.037-29.75-24.037-49.973 0-35.347 28.654-64 64-64h384v32h-384c-17.673 0-32 14.327-32 32 0 0.11 0.007 0.218 0.008 0.328l415.992 63.672z" />
<glyph unicode="&#xe17f;" d="M423.609 192c17.6 0 35.956 13.846 40.791 30.769l46.418 162.463c4.835 16.922-5.609 30.768-23.209 30.768h-327.609c0 35.346-28.654 64-64 64h-96v-64h96v-272c0-26.51 21.49-48 48-48h304c17.673 0 32 14.327 32 32s-14.327 32-32 32h-288v32h263.609zM160 352h289.403l-27.429-96h-261.974v96zM192 8c0-22-18-40-40-40h-16c-22 0-40 18-40 40v16c0 22 18 40 40 40h16c22 0 40-18 40-40v-16zM480 8c0-22-18-40-40-40h-16c-22 0-40 18-40 40v16c0 22 18 40 40 40h16c22 0 40-18 40-40v-16z" />
<glyph unicode="&#xe180;" d="M488.791 382.769c-16.992 4.854-34.705-4.985-39.56-21.978l-2.511-8.791h-298.471l-4.496 35.969c-2.002 16.014-15.615 28.031-31.753 28.031h-80c-17.673 0-32-14.327-32-32s14.327-32 32-32h51.751l28.496-227.969c2.002-16.013 15.615-28.031 31.753-28.031h272c14.287 0 26.844 9.472 30.769 23.209l64 224c4.855 16.993-4.985 34.705-21.978 39.56zM256 224v32h63.998v-32h-63.998zM319.998 192v-32h-63.998v32h63.998zM256 288v32h63.998v-32h-63.998zM152.249 320h71.751v-32h-67.751l-4 32zM160.249 256h63.751v-32h-59.751l-4 32zM168.249 192h55.751v-32h-51.751l-4 32zM391.862 160h-39.864v32h49.007l-9.143-32zM410.148 224h-58.15v32h67.293l-9.143-32zM428.434 288h-76.436v32h85.579l-9.143-32zM128 16c0-26.51 21.49-48 48-48s48 21.49 48 48c0 26.51-21.49 48-48 48s-48-21.49-48-48zM320 16c0-26.51 21.49-48 48-48s48 21.49 48 48c0 26.51-21.49 48-48 48s-48-21.49-48-48z" />
<glyph unicode="&#xe197;" d="M448 128v256c0 17.6-14.4 32-32 32h-320c-17.6 0-32-14.4-32-32v-256h-64v-96h512v96h-64zM320 64h-128v32h128v-32zM416 128h-320v255.943c0.017 0.020 0.038 0.041 0.057 0.057h319.885c0.020-0.017 0.041-0.038 0.058-0.058v-255.942z" />
<glyph unicode="&#xe198;" d="M368 480h-224c-26.4 0-48-21.6-48-48v-416c0-26.4 21.6-48 48-48h224c26.4 0 48 21.6 48 48v416c0 26.4-21.6 48-48 48zM192 456h128v-16h-128v16zM256 0c-17.673 0-32 14.327-32 32s14.327 32 32 32 32-14.327 32-32-14.327-32-32-32zM384 96h-256v320h256v-320z" />
<glyph unicode="&#xe199;" d="M384 480h-288c-17.6 0-32-14.399-32-32v-448c0-17.6 14.399-32 32-32h288c17.6 0 32 14.4 32 32v448c0 17.601-14.4 32-32 32zM240-8.891c-13.746 0-24.891 11.145-24.891 24.891s11.145 24.891 24.891 24.891 24.891-11.145 24.891-24.891-11.145-24.891-24.891-24.891zM384 64h-288v352h288v-352z" />
<glyph unicode="&#xe19a;" d="M400 480h-320c-26.4 0-48-21.6-48-48v-416c0-26.4 21.6-48 48-48h320c26.4 0 48 21.6 48 48v416c0 26.4-21.6 48-48 48zM240-16c-8.836 0-16 7.163-16 16s7.164 16 16 16 16-7.163 16-16-7.164-16-16-16zM384 32h-288v384h288v-384z" />
<glyph unicode="&#xe1ae;" d="M256 448c141.385 0 256-93.125 256-208s-114.615-208-256-208c-13.578 0-26.905 0.867-39.912 2.522-54.989-54.989-120.625-64.85-184.088-66.298v13.458c34.268 16.789 64 47.37 64 82.318 0 4.877-0.379 9.665-1.082 14.348-57.898 38.132-94.918 96.377-94.918 161.652 0 114.875 114.615 208 256 208z" />
<glyph unicode="&#xe1af;" d="M544 29.417c0-22.75 13.014-42.454 32-52.092v-7.969c-5.313-0.727-10.736-1.112-16.25-1.112-34.004 0-64.674 14.264-86.361 37.132-13.111-3.491-27.001-5.376-41.389-5.376-79.529 0-144 57.308-144 128s64.471 128 144 128c79.529 0 144-57.308 144-128 0-27.674-9.882-53.296-26.678-74.233-3.412-7.412-5.322-15.656-5.322-24.35zM256 480c139.229 0 252.496-90.307 255.918-202.76-24.591 10.96-51.793 16.76-79.918 16.76-47.78 0-92.908-16.723-127.069-47.089-35.423-31.486-54.931-73.717-54.931-118.911 0-22.336 4.772-43.944 13.868-63.894-2.614-0.063-5.234-0.106-7.868-0.106-13.578 0-26.905 0.867-39.912 2.522-54.989-54.989-120.625-64.85-184.088-66.298v13.458c34.268 16.789 64 47.37 64 82.318 0 4.877-0.379 9.665-1.082 14.348-57.898 38.132-94.918 96.377-94.918 161.652 0 114.875 114.615 208 256 208z" horiz-adv-x="576" />
<glyph unicode="&#xe1b0;" d="M240 480v0c132.548 0 240-86.957 240-194.224s-107.452-194.224-240-194.224c-12.729 0-25.223 0.81-37.417 2.355-51.553-51.347-111.086-60.554-170.583-61.907v12.567c32.126 15.677 58 44.233 58 76.867 0 4.553-0.356 9.024-1.015 13.397-54.279 35.607-88.985 89.994-88.985 150.945 0 107.267 107.452 194.224 240 194.224zM498 44.657c0-27.971 18.157-52.449 46-65.886v-10.771c-51.563 1.159-98.893 9.051-143.571 53.063-10.57-1.325-21.397-2.020-32.429-2.020-47.735 0-91.704 12.879-126.807 34.52 72.337 0.253 140.63 23.427 192.417 65.336 26.104 21.126 46.697 45.913 61.207 73.674 15.383 29.433 23.183 60.791 23.183 93.203 0 5.224-0.225 10.418-0.629 15.584 36.285-29.967 58.629-70.811 58.629-115.838 0-52.244-30.079-98.861-77.12-129.382-0.571-3.748-0.88-7.58-0.88-11.483z" horiz-adv-x="576" />
<glyph unicode="&#xe1b4;" d="M311.413 128.632c-11.055 1.759-11.307 32.157-11.307 32.157s32.484 32.158 39.564 75.401c19.045 0 30.809 45.973 11.761 62.148 0.795 17.027 24.48 133.662-95.431 133.662s-96.225-116.635-95.432-133.662c-19.047-16.175-7.285-62.148 11.761-62.148 7.079-43.243 39.564-75.401 39.564-75.401s-0.252-30.398-11.307-32.157c-35.61-5.666-168.586-64.317-168.586-128.632h448c0 64.315-132.976 122.966-168.587 128.632z" />
<glyph unicode="&#xe1b5;" d="M367.497 77.313c-9.476 1.494-9.692 27.327-9.692 27.327s27.844 27.328 33.912 64.076c16.326 0 26.407 39.069 10.082 52.814 0.681 14.47 20.984 113.588-81.799 113.588s-82.479-99.118-81.799-113.588c-16.327-13.745-6.244-52.814 10.081-52.814 6.067-36.748 33.913-64.076 33.913-64.076s-0.216-25.833-9.692-27.327c-30.524-4.816-144.503-54.658-144.503-109.313h384c0 54.655-113.979 104.497-144.503 109.313zM172.027 68.595c22.047 13.575 48.813 26.154 70.769 33.712-7.876 11.216-16.647 26.468-22.165 44.531-7.703 6.283-13.972 15.266-17.999 26.301-4.033 11.052-5.561 23.426-4.304 34.842 0.902 8.196 3.239 15.833 6.825 22.544-2.175 23.293-3.707 69.017 26.224 102.366 11.607 12.933 26.278 22.23 43.85 27.843-3.137 32.38-19.58 70.385-83.227 70.385-102.782 0-82.479-99.118-81.799-113.588-16.327-13.745-6.244-52.814 10.081-52.814 6.067-36.748 33.913-64.076 33.913-64.076s-0.216-25.833-9.692-27.327c-30.524-4.817-144.503-54.659-144.503-109.314h164.798c2.355 1.537 4.753 3.070 7.229 4.595z" />
<glyph unicode="&#xe1b8;" d="M128 320c0-70.692 57.308-128 128-128s128 57.308 128 128c0 70.692-57.308 128-128 128s-128-57.308-128-128zM384 160h-256c-70.692 0-128-57.309-128-128v-32h512v32c0 70.691-57.308 128-128 128z" />
<glyph unicode="&#xe1bb;" d="M364.496 224c68.877 43.667 115.504 127.604 115.504 224 0 10.838-0.596 21.517-1.739 32h-444.521c-1.145-10.484-1.74-21.163-1.74-32 0-96.396 46.627-180.333 115.503-224-68.876-43.667-115.503-127.604-115.503-224 0-10.838 0.595-21.517 1.739-32h444.521c1.144 10.483 1.739 21.162 1.739 32 0.001 96.396-46.626 180.333-115.503 224zM80 0c0 93.456 40.081 172.707 112 198.854v50.293c-71.919 26.145-112 105.396-112 198.853v0h352c0-93.457-40.081-172.708-112-198.853v-50.293c71.919-26.147 112-105.398 112-198.854h-352zM309.813 145.203c-35.827 20.322-37.804 46.684-37.813 62.683v32.114c0 15.997 1.902 42.457 37.872 62.832 19.252 11.182 35.904 28.174 48.524 49.168h-204.791c12.633-21.016 29.306-38.021 48.583-49.203 35.827-20.322 37.803-46.683 37.813-62.683v-32.114c0-15.996-1.902-42.457-37.872-62.832-36.311-21.090-63.369-62.842-71.545-113.168h250.835c-8.182 50.354-35.265 92.124-71.606 113.203z" />
<glyph unicode="&#xe1c2;" d="M32 480h192v-32h-192zM288 480h192v-32h-192zM476 320h-28v128h-128v-128h-128v128h-128v-128h-28c-19.8 0-36-16.2-36-36v-280c0-19.8 16.2-36 36-36h152c19.8 0 36 16.2 36 36v188h64v-188c0-19.8 16.2-36 36-36h152c19.8 0 36 16.2 36 36v280c0 19.8-16.2 36-36 36zM174 0h-124c-9.9 0-18 7.2-18 16s8.1 16 18 16h124c9.9 0 18-7.2 18-16s-8.1-16-18-16zM272 224h-32c-8.8 0-16 7.2-16 16s7.2 16 16 16h32c8.8 0 16-7.2 16-16s-7.2-16-16-16zM462 0h-124c-9.9 0-18 7.2-18 16s8.1 16 18 16h124c9.9 0 18-7.2 18-16s-8.1-16-18-16z" />
<glyph unicode="&#xe1dd;" d="M385.758 320c9.063 6.44 17.756 13.608 25.722 21.574 16.701 16.701 27.873 37.25 31.456 57.861 3.929 22.593-1.836 43.57-15.815 57.55-11.15 11.149-26.255 17.043-43.682 17.043-24.816 0-50.961-11.912-71.73-32.681-33.238-33.238-52.613-79.119-63.038-111.861-7.72 32.901-23.103 77.322-53.009 107.229-16.047 16.046-36.557 24.285-55.923 24.285-15.827 0-30.89-5.502-42.13-16.743-24.993-24.994-21.616-68.893 7.543-98.052 10.396-10.396 22.549-19.031 35.36-26.206h-108.512v-128h32v-224h384v224.001h32v128h-94.242zM337.163 415.891c13.862 13.862 31.161 22.137 46.275 22.137 5.35 0 12.854-1.127 18.225-6.499 13.015-13.014 5.706-43.154-15.64-64.499-21.973-21.973-51.53-37.084-77.216-47.030h-25.336c9.284 28.774 26.029 68.228 53.692 95.891zM116.967 399.555c-0.351 4.56-0.025 13.124 6.098 19.247 5.122 5.122 11.894 6.198 16.674 6.198v0c10.629 0 21.734-5.008 30.466-13.74 16.936-16.936 30.883-43.886 40.334-77.938 0.255-0.92 0.504-1.835 0.748-2.743-0.908 0.243-1.823 0.492-2.743 0.748-34.052 9.452-61.001 23.399-77.937 40.335-7.914 7.913-12.885 18.080-13.64 27.893zM224 0h-128v208h128v-208zM224 224h-160v64h160v-64zM416 0h-128v208h128v-208zM448 224h-160v64h160v-64z" />
<glyph unicode="&#xe1de;" d="M416 384v64h-320v-64h-96v-64c0-53.019 42.979-96 96-96 10.038 0 19.715 1.543 28.81 4.401 23.087-33.004 58.304-56.898 99.19-65.198v-99.203h-32c-35.347 0-64-28.653-64-64h256c0 35.347-28.653 64-64 64h-32v99.203c40.886 8.3 76.103 32.193 99.19 65.198 9.095-2.858 18.772-4.401 28.81-4.401 53.021 0 96 42.981 96 96v64h-96zM96 262c-31.981 0-58 26.019-58 58v32h58v-32c0-20.093 3.715-39.316 10.477-57.034-3.401-0.623-6.899-0.966-10.477-0.966zM474 320c0-31.981-26.019-58-58-58-3.578 0-7.076 0.343-10.477 0.966 6.762 17.718 10.477 36.941 10.477 57.034v32h58v-32z" />
<glyph unicode="&#xe1e8;" d="M160.504-32c-34.123 71.004-15.951 111.689 10.275 150.022 28.72 41.978 36.122 83.533 36.122 83.533s22.577-29.35 13.546-75.254c39.886 44.4 47.412 115.14 41.391 142.232 90.157-63.006 128.688-199.428 76.761-300.533 276.186 156.266 68.699 390.086 32.577 416.425 12.041-26.338 14.324-70.925-10-92.563-41.176 156.138-142.986 188.138-142.986 188.138 12.041-80.522-43.648-168.572-97.348-234.365-1.887 32.108-3.891 54.264-20.775 84.99-3.79-58.328-48.366-105.874-60.437-164.314-16.351-79.143 12.248-137.090 120.874-198.311z" />
<glyph unicode="&#xe600;" d="M334.572 243.143l-120.572-120.572q-5.428-5.428-12.857-5.428t-12.857 5.428l-84 84q-5.428 5.428-5.428 12.857t5.428 12.857l29.143 29.143q5.429 5.428 12.857 5.428t12.857-5.428l42-42 78.571 78.572q5.428 5.428 12.857 5.428t12.857-5.428l29.143-29.143q5.428-5.428 5.428-12.857t-5.428-12.857zM374.857 219.429q0 42.286-20.857 78t-56.572 56.572-78 20.857-78-20.857-56.572-56.572-20.857-78 20.857-78 56.572-56.572 78-20.857 78 20.857 56.572 56.572 20.857 78zM438.857 219.429q0-59.714-29.428-110.143t-79.857-79.857-110.143-29.428-110.143 29.428-79.857 79.857-29.428 110.143 29.428 110.143 79.857 79.857 110.143 29.428 110.143-29.428 79.857-79.857 29.428-110.143z" horiz-adv-x="439" />
<glyph unicode="&#xe601;" d="M328.286 154.857q0 7.428-5.428 12.857l-51.714 51.714 51.714 51.714q5.428 5.428 5.428 12.857 0 7.714-5.428 13.143l-25.714 25.714q-5.428 5.428-13.143 5.428-7.428 0-12.857-5.428l-51.714-51.714-51.714 51.714q-5.428 5.428-12.857 5.428-7.714 0-13.143-5.428l-25.715-25.714q-5.428-5.428-5.428-13.143 0-7.428 5.428-12.857l51.715-51.714-51.715-51.714q-5.428-5.428-5.428-12.857 0-7.714 5.428-13.143l25.715-25.714q5.428-5.428 13.143-5.428 7.429 0 12.857 5.428l51.714 51.714 51.714-51.714q5.428-5.428 12.857-5.428 7.714 0 13.143 5.428l25.714 25.714q5.428 5.428 5.428 13.143zM438.857 219.429q0-59.714-29.428-110.143t-79.857-79.857-110.143-29.428-110.143 29.428-79.857 79.857-29.428 110.143 29.428 110.143 79.857 79.857 110.143 29.428 110.143-29.428 79.857-79.857 29.428-110.143z" horiz-adv-x="439" />
<glyph unicode="&#xe602;" d="M370.857 97.714q0-11.428-8-19.428l-38.857-38.857q-8-8-19.428-8t-19.428 8l-84 84-84-84q-8-8-19.428-8t-19.428 8l-38.857 38.857q-8 8-8 19.428t8 19.428l84 84-84 84q-8 8-8 19.428t8 19.428l38.857 38.857q8 8 19.428 8t19.428-8l84-84 84 84q8 8 19.428 8t19.428-8l38.857-38.857q8-8 8-19.428t-8-19.428l-84-84 84-84q8-8 8-19.428z" horiz-adv-x="403" />
<glyph unicode="&#xe603;" d="M477.428 313.714q0-11.428-8-19.428l-245.714-245.714q-8-8-19.428-8t-19.428 8l-142.286 142.286q-8 8-8 19.428t8 19.428l38.857 38.857q8 8 19.428 8t19.428-8l84-84.285 187.429 187.714q8 8 19.428 8t19.428-8l38.857-38.857q8-8 8-19.428z" />
<glyph unicode="&#xe604;" d="M320 210.286q0-3.428-2.857-6.857l-91.143-91.143q-3.143-2.572-6.571-2.572t-6.572 2.572l-91.428 91.428q-4.285 4.572-2 10 2.285 5.714 8.572 5.714h54.857v100.572q0 4 2.571 6.572t6.571 2.571h54.857q4 0 6.571-2.571t2.571-6.572v-100.572h54.857q4 0 6.572-2.572t2.572-6.572zM219.429 374.857q-42.285 0-78-20.857t-56.572-56.572-20.857-78 20.857-78 56.572-56.572 78-20.857 78 20.857 56.572 56.572 20.857 78-20.857 78-56.572 56.572-78 20.857zM438.857 219.429q0-59.714-29.428-110.143t-79.857-79.857-110.143-29.428-110.143 29.428-79.857 79.857-29.428 110.143 29.428 110.143 79.857 79.857 110.143 29.428 110.143-29.428 79.857-79.857 29.428-110.143z" horiz-adv-x="439" />
<glyph unicode="&#xe605;" d="M274.286 283.429q34 0 58.143-24.143t24.143-58.143-24.143-58.143-58.143-24.143-58.143 24.143-24.143 58.143 24.143 58.143 58.143 24.143zM475.428 402.286q30.286 0 51.715-21.428t21.428-51.714v-256q0-30.286-21.428-51.714t-51.714-21.428h-402.286q-30.285 0-51.715 21.428t-21.428 51.714v256q0 30.286 21.428 51.714t51.715 21.428h64l14.572 38.857q5.428 14 19.857 24.143t29.571 10.143h146.286q15.143 0 29.572-10.143t19.857-24.143l14.572-38.857h64zM274.286 73.143q52.857 0 90.428 37.572t37.572 90.428-37.572 90.428-90.428 37.572-90.428-37.572-37.572-90.428 37.572-90.428 90.428-37.572z" horiz-adv-x="549" />
<glyph unicode="&#xe606;" d="M204.857 76.857l129.715 129.714q5.428 5.428 5.428 12.857t-5.428 12.857l-129.714 129.714q-5.428 5.429-12.857 5.429t-12.857-5.429l-29.143-29.143q-5.429-5.428-5.429-12.857t5.428-12.857l87.714-87.714-87.714-87.714q-5.428-5.428-5.428-12.857t5.428-12.857l29.143-29.143q5.429-5.428 12.857-5.428t12.857 5.428zM438.857 219.429q0-59.714-29.428-110.143t-79.857-79.857-110.143-29.428-110.143 29.428-79.857 79.857-29.428 110.143 29.428 110.143 79.857 79.857 110.143 29.428 110.143-29.428 79.857-79.857 29.428-110.143z" horiz-adv-x="439" />
<glyph unicode="&#xe607;" d="M366.857 265.714q0 8-5.143 13.143l-26 25.715q-5.428 5.428-12.857 5.428t-12.857-5.428l-116.572-116.286-64.572 64.572q-5.428 5.428-12.857 5.428t-12.857-5.428l-26-25.714q-5.143-5.143-5.143-13.143 0-7.714 5.143-12.857l103.428-103.428q5.428-5.428 12.857-5.428 7.714 0 13.143 5.428l155.143 155.143q5.143 5.143 5.143 12.857zM438.857 219.429q0-59.714-29.428-110.143t-79.857-79.857-110.143-29.428-110.143 29.428-79.857 79.857-29.428 110.143 29.428 110.143 79.857 79.857 110.143 29.428 110.143-29.428 79.857-79.857 29.428-110.143z" horiz-adv-x="439" />
<glyph unicode="&#xe608;" d="M420.572 201.143q0-15.428-10.572-26l-186-186q-11.143-10.572-26-10.572-14.572 0-25.714 10.572l-21.428 21.428q-10.857 10.857-10.857 26t10.857 26l83.714 83.714h-201.143q-14.857 0-24.143 10.714t-9.286 25.857v36.572q0 15.143 9.286 25.857t24.143 10.714h201.143l-83.714 84q-10.857 10.286-10.857 25.714t10.857 25.715l21.428 21.428q10.857 10.857 25.714 10.857 15.143 0 26-10.857l186-186q10.572-10 10.572-25.714z" horiz-adv-x="439" />
<glyph unicode="&#xe609;" d="M480 224h-448q-13.5 0-22.75 9.25t-9.25 22.5 9.25 22.75 22.75 9.5h28q10-15 25.75-23.5t34.25-8.5 34.25 8.5 25.75 23.5h152q10-15 25.75-23.5t34.25-8.5 34.25 8.5 25.75 23.5h28q13.5 0 22.75-9.5t9.25-22.75-9.25-22.5-22.75-9.25zM403 291q-9.5-5.5-20-2.5t-16 12.5l-75.5 139q-5.5 9.5-2.75 20.25t12.25 16.25 20 2.5 16-12.5l75.5-139q5.5-9.5 2.75-20.25t-12.25-16.25zM145 301q-5.5-9.5-16-12.5t-20 2.5-12.25 16.25 2.75 20.25l75.5 139q5.5 9.5 16 12.5t20-2.5 12.25-16.25-2.75-20.25zM448 0q-4-20-14.75-26t-32.75-6h-287q-22.5 0-34 6t-15.5 26l-32 192h448z" />
<glyph unicode="&#xe60a;" d="M182.929 246.857v-18.285q0-3.714 2.714-6.428t6.429-2.714h64v-64q0-3.714 2.714-6.428t6.428-2.714h18.286q3.714 0 6.428 2.714t2.714 6.428v64h64q3.714 0 6.428 2.714t2.714 6.428v18.286q0 3.714-2.714 6.428t-6.428 2.714h-64v64q0 3.714-2.714 6.428t-6.428 2.714h-18.286q-3.714 0-6.428-2.714t-2.714-6.428v-64h-64q-3.714 0-6.428-2.714t-2.714-6.428zM146.357 237.714q0 52.857 37.571 90.428t90.428 37.571 90.428-37.571 37.572-90.428-37.572-90.428-90.428-37.572-90.428 37.572-37.572 90.428zM0.071 0q0-15.143 10.714-25.857t25.857-10.715q15.428 0 25.715 10.857l98 97.714q51.143-35.428 114-35.428 40.857 0 78.143 15.857t64.286 42.857 42.857 64.286 15.857 78.143-15.857 78.143-42.857 64.285-64.286 42.857-78.143 15.857-78.143-15.857-64.285-42.857-42.857-64.285-15.857-78.143q0-62.857 35.428-114l-98-98q-10.572-10.572-10.572-25.714z" horiz-adv-x="476" />
<glyph unicode="&#xe60b;" d="M256 480v0 0zM384 448q53 0 90.5 9.25t37.5 22.75v-128h-512v128q0-13.5 37.5-22.75t90.5-9.25 90.5 9.25 37.5 22.75q0-13.5 37.5-22.75t90.5-9.25zM256-32q-47 13.5-84.25 32.75t-62.5 39.25-44.25 48.5-29.75 52-18.25 58.25-10.75 59-6.25 62.25h512q-3-38-6.25-62.25t-10.75-59-18.25-58.25-29.75-52-44.25-48.5-62.5-39.25-84.25-32.75z" />
<glyph unicode="&#xe60c;" d="M512 32q0-15.5-13.5-27t-35.75-18.5-56-11.25-69.5-5.75-81.25-1.5q-55 0-100 4t-80.75 12.25-55.5 22.5-19.75 33.25q0 21 25.5 43.75t69.75 41.5 96.75 27.75v39q0 53.5-20 103-9-9.5-23-29t-24.5-33.75-26.5-26.5-32.5-13.75q-1.5 7-1.5 14.75t0.75 18 0.75 15.75q0 32.5 15.25 61.5t40.75 50h-9.5q-34.5 0-59.25-26.5t-36.75-69.5q-4.5 4.5-10.25 15.75t-5.75 22.25q0 56 32.25 89t79.75 33q52.5 0 77-27 9 39.5 40.75 65.25t72.75 25.75q48 0 80.75-25t32.75-71q-36.5 32-96 32-24.5 0-37.75-9.75t-20.75-28.75q20.5 6.5 41.5 6.5 47 0 80-25.5t33-61.5q0-22.5-13.75-41.75t-37.25-31.25q-8.5 42.5-37.5 66.75t-71 28.25q5-10 10.5-25.25t13.25-54.25 7.75-79.5v-0.5q52.5-3 105.5-24.25t85.75-49.75 32.75-53.5z" />
<glyph unicode="&#xe60d;" d="M217.296-0.112c113.632 0 213.936 62.976 213.936 167.92 0 38.288-17.904 61.744-25.408 74.096-6.256 7.408-6.256 13.584 8.752 14.816 58.672 8.64 97.376 40.752 97.376 102.48 0 33.344-27.472 73.44-77.408 73.44-23.712 0-52.688-22.816-52.688-47.504 0-13.6 13.984-29.824 33.952-29.824 22.48 0 35.216 23.648 31.472 33.536-1.232 6.176-5.232 13.584 3.488 13.584 16.256 0 34.976-20.992 34.976-40.752 0-34.576-32.464-58.336-83.664-58.336-27.472 0-51.184 16.944-77.408 16.944-66.176 0-104.88-52.448-104.88-98.144 0-51.856 39.952-76.544 69.92-76.544 33.696 0 43.696 19.744 43.696 35.808 0 18.512-11.248 30.864-34.976 30.864-18.72 0-27.472-19.744-26.224-29.632 1.248-4.944-2.496-8.64-6.256-8.64-4.992 0-19.968 16.048-19.968 37.024 0 14.832 10 63.568 62.432 63.568 56.176 0 95.312-51.2 95.312-93.184 0-59.264-66.608-122.256-180.224-122.256-113.632 0-178.544 51.856-178.544 127.184 0 34.576 14.992 66.672 33.696 80.256 7.504 4.944 11.248 3.696 14.992-2.464 8.752-6.176 28.72-22.816 41.2-22.816 16.24 0 24.976 20.336 24.976 37.648 0 14.816-17.472 24.992-32.448 24.992s-24.976-8.944-31.216-11.408c-8.736 13.584-13.728 30.864-13.728 44.448 0 39.504 28.72 64.304 56.192 64.304 23.712 0 43.696-18.608 39.952-42.080-1.248-6.176-1.248-11.104 1.248-11.104 9.984 0 32.448 14.816 32.448 41.984 0 38.272-28.704 58.032-66.176 58.032-61.168 0-98.624-43.216-98.624-88.912 0-27.152 9.984-51.856 26.224-72.848-24.976-11.104-73.664-53.088-73.664-127.184 0.016-62.976 43.712-159.296 217.264-159.296z" />
<glyph unicode="&#xe60e;" d="M314 237.714q0-14.857-10.572-26l-186.286-186q-10.572-10.572-25.715-10.572t-25.715 10.572l-21.715 21.428q-10.572 11.143-10.572 26 0 15.143 10.572 25.714l138.857 138.857-138.857 138.572q-10.572 11.143-10.572 26 0 15.143 10.572 25.714l21.715 21.428q10.285 10.857 25.715 10.857t25.715-10.857l186.286-186q10.572-10.571 10.572-25.714z" horiz-adv-x="329" />
<glyph unicode="&#xe60f;" d="M212 26l-186.286 186q-10.572 10.572-10.572 25.857t10.572 25.857l186.286 186q10.572 10.571 25.857 10.571t25.857-10.571l21.428-21.429q10.572-10.571 10.572-25.857t-10.572-25.857l-138.857-138.857 138.857-138.571q10.572-10.857 10.572-26t-10.572-25.714l-21.428-21.428q-10.572-10.572-25.857-10.572t-25.857 10.572z" horiz-adv-x="329" />
<glyph unicode="&#xe610;" d="M438.857 219.429v-36.572q0-15.143-9.286-25.857t-24.143-10.714h-201.143l83.715-84q10.857-10.286 10.857-25.714t-10.857-25.714l-21.428-21.714q-10.572-10.572-25.714-10.572-14.857 0-26 10.572l-186 186.286q-10.572 10.572-10.572 25.714 0 14.857 10.572 26l186 185.714q10.857 10.857 26 10.857 14.857 0 25.714-10.857l21.428-21.143q10.857-10.857 10.857-26t-10.857-26l-83.714-83.714h201.143q14.857 0 24.143-10.714t9.286-25.857z" horiz-adv-x="439" />
<glyph unicode="&#xe611;" d="M460.286 128q0-15.143-10.572-25.714l-21.428-21.428q-10.857-10.857-26-10.857-15.428 0-25.714 10.857l-138.857 138.572-138.857-138.572q-10.285-10.857-25.715-10.857t-25.715 10.857l-21.428 21.428q-10.857 10.286-10.857 25.714 0 15.143 10.857 26l186 186q10.572 10.571 25.714 10.571 14.857 0 26-10.571l185.714-186q10.857-10.857 10.857-26z" horiz-adv-x="476" />
<glyph unicode="&#xe612;" d="M460.286 274.286q0-15.143-10.572-25.714l-186-186q-10.857-10.857-26-10.857-15.428 0-25.714 10.857l-186 186q-10.857 10.286-10.857 25.714 0 15.143 10.857 26l21.143 21.428q11.143 10.572 26 10.572 15.143 0 25.715-10.572l138.857-138.857 138.857 138.857q10.572 10.572 25.714 10.572 14.857 0 26-10.572l21.428-21.428q10.572-11.143 10.572-26z" horiz-adv-x="476" />
<glyph unicode="&#xe613;" d="M512 144q0-13.5-20.5-32.5t-53.75-36.75-82.5-30.25-99.25-12.5-99 12.5-82.5 30.25-54 36.75-20.5 32.5q0 26.5 85 38.5 4.5 31 11 61.25t16 64.25 22.25 55 25.75 21q14 0 47.25-16t48.75-16q13.5 0 26 5t21 11 21.5 11 27.5 5q14 0 36.5-67.5t37-133.5q86.5-12 86.5-39z" />
<glyph unicode="&#xe614;" d="M256-32q-69.5 0-128.5 34.25t-93.25 93.25-34.25 128.5 34.25 128.5 93.25 93.25 128.5 34.25 128.5-34.25 93.25-93.25 34.25-128.5-34.25-128.5-93.25-93.25-128.5-34.25zM192 9.5q31.5-9.5 64-9.5t64 9.5v104q-29.5-17.5-63.75-17.5t-64.25 17.5v-104zM145.5 288h-104q-9.5-31.5-9.5-64t9.5-64h104q-17.5 30-17.5 64t17.5 64zM320 438.5q-31.5 9.5-64 9.5t-64-9.5v-104q30 17.5 64 17.5t64-17.5v104zM256 320q-40 0-68-28t-28-68 28-68 68-28 68 28 28 68-28 68-68 28zM366.5 288q17.5-30 17.5-64t-17.5-64h104q9.5 31.5 9.5 64t-9.5 64h-104z" />
<glyph unicode="&#xe615;" d="M259.714 76.857l29.143 29.143q5.428 5.428 5.428 12.857t-5.428 12.857l-87.714 87.714 87.714 87.714q5.428 5.428 5.428 12.857t-5.428 12.857l-29.143 29.143q-5.428 5.428-12.857 5.428t-12.857-5.428l-129.714-129.714q-5.428-5.428-5.428-12.857t5.428-12.857l129.714-129.714q5.428-5.428 12.857-5.428t12.857 5.428zM438.857 219.429q0-59.714-29.428-110.143t-79.857-79.857-110.143-29.428-110.143 29.428-79.857 79.857-29.428 110.143 29.428 110.143 79.857 79.857 110.143 29.428 110.143-29.428 79.857-79.857 29.428-110.143z" horiz-adv-x="439" />
<glyph unicode="&#xe616;" d="M332.857 150l29.143 29.143q5.428 5.428 5.428 12.857t-5.428 12.857l-129.714 129.714q-5.428 5.428-12.857 5.428t-12.857-5.428l-129.714-129.714q-5.428-5.428-5.428-12.857t5.428-12.857l29.143-29.143q5.428-5.428 12.857-5.428t12.857 5.428l87.715 87.714 87.714-87.714q5.428-5.428 12.857-5.428t12.857 5.428zM438.857 219.429q0-59.714-29.428-110.143t-79.857-79.857-110.143-29.428-110.143 29.428-79.857 79.857-29.428 110.143 29.428 110.143 79.857 79.857 110.143 29.428 110.143-29.428 79.857-79.857 29.428-110.143z" horiz-adv-x="439" />
<glyph unicode="&#xe617;" d="M232.286 104.286l129.714 129.714q5.428 5.428 5.428 12.857t-5.428 12.857l-29.143 29.143q-5.428 5.429-12.857 5.429t-12.857-5.428l-87.714-87.714-87.714 87.714q-5.428 5.428-12.857 5.428t-12.857-5.428l-29.143-29.143q-5.428-5.428-5.428-12.857t5.428-12.857l129.714-129.714q5.429-5.428 12.857-5.428t12.857 5.428zM438.857 219.429q0-59.714-29.428-110.143t-79.857-79.857-110.143-29.428-110.143 29.428-79.857 79.857-29.428 110.143 29.428 110.143 79.857 79.857 110.143 29.428 110.143-29.428 79.857-79.857 29.428-110.143z" horiz-adv-x="439" />
<glyph unicode="&#xe618;" d="M438.857 91.429v-36.572q0-7.428-5.428-12.857t-12.857-5.428h-402.286q-7.428 0-12.857 5.428t-5.428 12.857v36.572q0 7.428 5.428 12.857t12.857 5.428h402.286q7.428 0 12.857-5.428t5.428-12.857zM438.857 237.714v-36.572q0-7.428-5.428-12.857t-12.857-5.428h-402.286q-7.428 0-12.857 5.428t-5.428 12.857v36.572q0 7.428 5.428 12.857t12.857 5.429h402.286q7.428 0 12.857-5.428t5.428-12.857zM438.857 384v-36.572q0-7.428-5.428-12.857t-12.857-5.428h-402.286q-7.428 0-12.857 5.428t-5.428 12.857v36.572q0 7.428 5.428 12.857t12.857 5.428h402.286q7.428 0 12.857-5.428t5.428-12.857z" horiz-adv-x="439" />
<glyph unicode="&#xe619;" d="M219.429 292.572q0 30.286-21.429 51.715t-51.714 21.428-51.715-21.428-21.428-51.714 21.428-51.714 51.715-21.428 51.714 21.428 21.428 51.714zM292.572 292.572q0-31.143-9.428-51.143l-104-221.143q-4.572-9.428-13.572-14.857t-19.286-5.428-19.285 5.428-13.285 14.857l-104.285 221.143q-9.428 20-9.428 51.143 0 60.571 42.857 103.428t103.428 42.857 103.428-42.857 42.857-103.428z" horiz-adv-x="293" />
<glyph unicode="&#xe61a;" d="M255.008-32c0 0-159.008 224.992-159.008 320.992 0 189.008 159.008 191.008 159.008 191.008s160.992-2 160.992-190c0-98.992-160.992-322-160.992-322zM256 384c-35.344 0-64-28.656-64-64s28.656-64 64-64 64 28.656 64 64-28.656 64-64 64z" />
<glyph unicode="&#xe61b;" d="M438.857 411.429v-320q0-14.286-9.714-25.428t-24.572-17.286-29.572-9.143-27.572-3-27.572 3-29.572 9.143-24.572 17.286-9.714 25.428 9.714 25.428 24.572 17.286 29.572 9.143 27.572 3q30 0 54.857-11.143v153.428l-219.429-67.714v-202.571q0-14.286-9.714-25.428t-24.571-17.286-29.572-9.143-27.572-3-27.572 3-29.572 9.143-24.572 17.286-9.714 25.428 9.714 25.428 24.572 17.286 29.572 9.143 27.572 3q30 0 54.857-11.143v276.286q0 8.857 5.428 16.143t14 10.143l237.714 73.143q3.428 1.143 8 1.143 11.428 0 19.428-8t8-19.429z" horiz-adv-x="439" />
<glyph unicode="&#xe61c;" d="M485.428 422.286q0-10-12.286-22.285l-180.571-180.572v-219.428h91.428q7.428 0 12.857-5.428t5.428-12.857-5.428-12.857-12.857-5.428h-256q-7.428 0-12.857 5.428t-5.428 12.857 5.428 12.857 12.857 5.428h91.428v219.428l-180.571 180.572q-12.285 12.285-12.285 22.285 0 6.572 5.143 10.429t10.857 5 12.285 1.143h402.286q6.572 0 12.286-1.143t10.857-5 5.143-10.429z" />
<glyph unicode="&#xe61d;" d="M512 384h-512l255.632-320 256.368 320z" />
<glyph unicode="&#xe61e;" d="M0 64h512l-255.632 320-256.368-320z" />
<glyph unicode="&#xe61f;" d="M416-32v512l-320-255.632 320-256.368z" />
<glyph unicode="&#xe620;" d="M96 480v-512l320 255.632-320 256.368z" />
<glyph unicode="&#xe621;" d="M192 480l-192-256h192l-128-256 448 320h-256l192 192z" />
<glyph unicode="&#xe622;" d="M426 480h-340c-47.3 0-86-38.7-86-86v-340c0-47.3 38.7-86 86-86h340c47.3 0 86 38.7 86 86v340c0 47.3-38.7 86-86 86zM192 64h-64v224h64v-224zM160 320c-17.673 0-32 14.327-32 32s14.327 32 32 32 32-14.327 32-32-14.327-32-32-32zM416 64h-64v128c0 17.673-14.327 32-32 32s-32-14.327-32-32v-128h-64v224h64v-39.736c13.199 18.132 33.376 39.736 56 39.736 39.765 0 72-35.817 72-80v-144z" />
<glyph unicode="&#xe623;" d="M448-32h-384q-26.5 0-45.25 18.75t-18.75 45.25v16q0 6.5 4.75 11.25t11.25 4.75h112q26.5 0 45.25 18.75t18.75 45.25v304q0 6.5 4.75 11.25t11.25 4.75h240q26.5 0 45.25-18.75t18.75-45.25v-352q0-26.5-18.75-45.25t-45.25-18.75zM320 48q0-6.5 4.75-11.25t11.25-4.75h32q6.5 0 11.25 4.75t4.75 11.25v32q0 6.5-4.75 11.25t-11.25 4.75h-32q-6.5 0-11.25-4.75t-4.75-11.25v-32zM320 144q0-6.5 4.75-11.25t11.25-4.75h32q6.5 0 11.25 4.75t4.75 11.25v32q0 6.5-4.75 11.25t-11.25 4.75h-32q-6.5 0-11.25-4.75t-4.75-11.25v-32zM320 240q0-6.5 4.75-11.25t11.25-4.75h32q6.5 0 11.25 4.75t4.75 11.25v32q0 6.5-4.75 11.25t-11.25 4.75h-32q-6.5 0-11.25-4.75t-4.75-11.25v-32zM224 48q0-6.5 4.75-11.25t11.25-4.75h32q6.5 0 11.25 4.75t4.75 11.25v32q0 6.5-4.75 11.25t-11.25 4.75h-32q-6.5 0-11.25-4.75t-4.75-11.25v-32zM224 144q0-6.5 4.75-11.25t11.25-4.75h32q6.5 0 11.25 4.75t4.75 11.25v32q0 6.5-4.75 11.25t-11.25 4.75h-32q-6.5 0-11.25-4.75t-4.75-11.25v-32zM224 240q0-6.5 4.75-11.25t11.25-4.75h32q6.5 0 11.25 4.75t4.75 11.25v32q0 6.5-4.75 11.25t-11.25 4.75h-32q-6.5 0-11.25-4.75t-4.75-11.25v-32zM480 368q0 6.5-4.75 11.25t-11.25 4.75h-224q-6.5 0-11.25-4.75t-4.75-11.25v-32q0-6.5 4.75-11.25t11.25-4.75h224q6.5 0 11.25 4.75t4.75 11.25v32zM480 272q0 6.5-4.75 11.25t-11.25 4.75h-32q-6.5 0-11.25-4.75t-4.75-11.25v-32q0-6.5 4.75-11.25t11.25-4.75h32q6.5 0 11.25 4.75t4.75 11.25v32zM480 176q0 6.5-4.75 11.25t-11.25 4.75h-32q-6.5 0-11.25-4.75t-4.75-11.25v-32q0-6.5 4.75-11.25t11.25-4.75h32q6.5 0 11.25 4.75t4.75 11.25v32zM480 80q0 6.5-4.75 11.25t-11.25 4.75h-32q-6.5 0-11.25-4.75t-4.75-11.25v-32q0-6.5 4.75-11.25t11.25-4.75h32q6.5 0 11.25 4.75t4.75 11.25v32zM128 96h-96q-13 0-22.5 9.25t-9.5 22.75v320q0 13 9.5 22.5t22.5 9.5h96q13 0 22.5-9.5t9.5-22.5v-320q0-13.5-9.25-22.75t-22.75-9.25z" />
<glyph unicode="&#xe624;" d="M448 448l64-128h-128zM288 448h128l-64-128zM192 320l64 128 64-128h-128zM96 448h128l-64-128zM0 320l64 128 64-128h-128zM224 0l-224 288h128zM352 288l-96-288-96 288h192zM512 288l-224-288 96 288h128z" />
<glyph unicode="&#xe625;" d="M109.715 36.572h256v73.143h-256v-73.143zM109.715 219.429h256v109.714h-45.714q-11.428 0-19.428 8t-8 19.428v45.714h-182.857v-182.857zM438.857 201.143q0 7.428-5.428 12.857t-12.857 5.428-12.857-5.428-5.428-12.857 5.428-12.857 12.857-5.428 12.857 5.428 5.428 12.857zM475.428 201.143v-118.857q0-3.714-2.714-6.428t-6.428-2.714h-64v-45.714q0-11.428-8-19.428t-19.428-8h-274.286q-11.428 0-19.428 8t-8 19.428v45.714h-64q-3.715 0-6.428 2.714t-2.715 6.428v118.857q0 22.572 16.143 38.714t38.715 16.143h18.285v155.429q0 11.428 8 19.428t19.428 8h192q11.428 0 25.143-5.714t21.714-13.715l43.428-43.428q8-8 13.714-21.714t5.714-25.143v-73.143h18.286q22.572 0 38.714-16.143t16.143-38.714z" horiz-adv-x="476" />
<glyph unicode="&#xe626;" d="M512 338.75l-45.253 45.25-89.373-89.376-50.75 50.751 89.375 89.375-45.25 45.25-89.375-89.375-57.374 57.375-43.313-43.312 256.001-256.001 43.312 43.312-57.376 57.376zM137.374 105.373c82.884-82.881 192.597-18.181 259.646 37.732l-221.912 221.912c-55.912-67.048-120.614-176.761-37.734-259.644zM95.999 127.998l63.997-63.998-95.996-95.996-63.998 63.997z" />
<glyph unicode="&#xe627;" d="M502.25 202.25q-9.75-9.75-23.5-9.75t-23.25 9.5l-7.5 7.5v-209.5q0-13-9.25-22.5t-22.75-9.5h-96v144q0 6.5-4.75 11.25t-11.25 4.75h-96q-6.5 0-11.25-4.75t-4.75-11.25v-144h-96q-13.5 0-22.75 9.5t-9.25 22.5v209.5l-7.5-7.5q-9.5-9.5-23.25-9.5t-23.5 9.75-9.75 23.5 9.5 23.25l222 222q10 10 24.5 9.5 14.5 0.5 24.5-9.5l222-222q9.5-9.5 9.5-23.25t-9.75-23.5z" />
<glyph unicode="&#xe628;" d="M292.572 219.429q0 30.286-21.428 51.714t-51.714 21.428-51.714-21.428-21.428-51.714 21.428-51.714 51.714-21.428 51.714 21.428 21.428 51.714zM438.857 250.572v-63.428q0-3.428-2.286-6.572t-5.714-3.714l-52.857-8q-5.428-15.428-11.143-26 10-14.286 30.572-39.428 2.857-3.428 2.857-7.143t-2.572-6.572q-7.714-10.572-28.286-30.857t-26.857-20.286q-3.428 0-7.428 2.572l-39.428 30.857q-12.572-6.572-26-10.857-4.572-38.857-8.286-53.143-2-8-10.286-8h-63.428q-4 0-7 2.428t-3.286 6.143l-8 52.572q-14 4.572-25.714 10.572l-40.285-30.572q-2.857-2.572-7.143-2.572-4 0-7.143 3.143-36 32.572-47.143 48-2 2.857-2 6.572 0 3.428 2.285 6.572 4.285 6 14.572 19t15.428 20.143q-7.715 14.286-11.715 28.286l-52.285 7.714q-3.715 0.572-6 3.572t-2.285 6.714v63.428q0 3.428 2.285 6.572t5.428 3.714l53.143 8q4 13.143 11.143 26.286-11.428 16.286-30.572 39.428-2.857 3.428-2.857 6.857 0 2.857 2.572 6.572 7.428 10.286 28.143 30.714t27 20.428q3.715 0 7.428-2.857l39.428-30.572q12.572 6.572 26 10.857 4.572 38.857 8.286 53.143 2 8 10.286 8h63.428q4 0 7-2.428t3.286-6.143l8-52.571q14-4.572 25.714-10.572l40.572 30.572q2.572 2.571 6.857 2.571 3.714 0 7.143-2.857 36.857-34 47.143-48.572 2-2.286 2-6.286 0-3.428-2.286-6.571-4.286-6-14.572-19t-15.428-20.143q7.428-14.286 11.714-28l52.286-8q3.714-0.571 6-3.571t2.286-6.714z" horiz-adv-x="439" />
<glyph unicode="&#xe629;" d="M103.715 36.572l26 26-67.143 67.143-26-26v-30.572h36.572v-36.572h30.572zM253.143 301.714q0 6.286-6.286 6.286-2.857 0-4.857-2l-154.857-154.857q-2-2-2-4.857 0-6.286 6.285-6.286 2.857 0 4.857 2l154.857 154.857q2 2 2 4.857zM237.714 356.572l118.857-118.857-237.714-237.714h-118.857v118.857zM432.857 329.143q0-15.143-10.572-25.714l-47.428-47.428-118.857 118.857 47.428 47.143q10.286 10.857 25.714 10.857 15.143 0 26-10.857l67.143-66.857q10.572-11.143 10.572-26z" horiz-adv-x="439" />
<glyph unicode="&#xe62a;" d="M256 82.286v54.857q0 4-2.571 6.572t-6.571 2.572h-54.857q-4 0-6.571-2.572t-2.571-6.572v-54.857q0-4 2.571-6.572t6.572-2.572h54.857q4 0 6.571 2.572t2.572 6.572zM329.143 274.286q0 25.143-15.857 46.572t-39.572 33.143-48.572 11.714q-69.428 0-106-60.857-4.285-6.857 2.285-12l37.715-28.572q2-1.714 5.428-1.714 4.572 0 7.143 3.428 15.143 19.429 24.571 26.286 9.714 6.857 24.572 6.857 13.714 0 24.428-7.428t10.714-16.857q0-10.857-5.714-17.428t-19.428-12.857q-18-8-33-24.714t-15-35.857v-10.286q0-4 2.571-6.572t6.571-2.572h54.857q4 0 6.571 2.572t2.572 6.572q0 5.428 6.143 14.143t15.572 14.143q9.143 5.143 14 8.143t13.143 10 12.714 13.714 8 17.286 3.572 23.143zM438.857 219.429q0-59.714-29.428-110.143t-79.857-79.857-110.143-29.428-110.143 29.428-79.857 79.857-29.428 110.143 29.428 110.143 79.857 79.857 110.143 29.428 110.143-29.428 79.857-79.857 29.428-110.143z" horiz-adv-x="439" />
<glyph unicode="&#xe62b;" d="M179.143 320q0-3.714-2.857-6.571l-112.285-112.286 112.285-112.286q2.857-2.857 2.857-6.572t-2.857-6.572l-14.286-14.286q-2.857-2.857-6.572-2.857t-6.572 2.857l-133.143 133.143q-2.857 2.857-2.857 6.572t2.857 6.572l133.143 133.143q2.857 2.857 6.572 2.857t6.572-2.857l14.286-14.286q2.857-2.857 2.857-6.571z" horiz-adv-x="183" />
<glyph unicode="&#xe62c;" d="M170 201.143q0-3.714-2.857-6.572l-133.143-133.143q-2.857-2.857-6.572-2.857t-6.572 2.857l-14.286 14.286q-2.857 2.857-2.857 6.572t2.857 6.572l112.285 112.286-112.285 112.286q-2.857 2.857-2.857 6.572t2.857 6.572l14.285 14.286q2.857 2.857 6.572 2.857t6.572-2.857l133.143-133.143q2.857-2.857 2.857-6.572z" horiz-adv-x="183" />
<glyph unicode="&#xe62d;" d="M307.143 137.143q0-3.714-2.857-6.572l-14.286-14.286q-2.857-2.857-6.572-2.857t-6.572 2.857l-112.286 112.286-112.285-112.286q-2.857-2.857-6.572-2.857t-6.572 2.857l-14.285 14.286q-2.857 2.857-2.857 6.572t2.857 6.572l133.143 133.143q2.857 2.857 6.571 2.857t6.572-2.857l133.143-133.143q2.857-2.857 2.857-6.572z" horiz-adv-x="329" />
<glyph unicode="&#xe62e;" d="M307.143 265.143q0-3.714-2.857-6.572l-133.143-133.143q-2.857-2.857-6.571-2.857t-6.572 2.857l-133.143 133.143q-2.857 2.857-2.857 6.572t2.857 6.572l14.285 14.286q2.857 2.857 6.572 2.857t6.572-2.857l112.285-112.286 112.285 112.286q2.857 2.857 6.572 2.857t6.572-2.857l14.286-14.286q2.857-2.857 2.857-6.572z" horiz-adv-x="329" />
<glyph unicode="&#xe62f;" d="M115.428 158.857l43.428-43.428-14.857-14.857h-16v27.428h-27.428v16zM233.714 270.286q4-3.714-0.857-8.571l-83.143-83.143q-4.857-4.857-8.572-0.857-4 3.714 0.857 8.572l83.143 83.143q4.857 4.857 8.572 0.857zM155.429 73.143l155.429 155.428-82.286 82.286-155.429-155.428v-82.286h82.285zM329.143 246.857l26.286 26.286q8 8 8 19.428t-8 19.428l-43.428 43.428q-8 8-19.428 8t-19.428-8l-26.286-26.286zM438.857 356.572v-274.286q0-34-24.143-58.143t-58.143-24.143h-274.286q-34 0-58.143 24.143t-24.143 58.143v274.286q0 34 24.143 58.143t58.143 24.143h274.286q34 0 58.143-24.143t24.143-58.143z" horiz-adv-x="439" />
<glyph unicode="&#xe630;" d="M195.714 104.286l175.429 175.428q5.428 5.429 5.428 12.857t-5.428 12.857l-29.143 29.143q-5.428 5.428-12.857 5.428t-12.857-5.428l-133.429-133.428-60.285 60.286q-5.428 5.428-12.857 5.428t-12.857-5.428l-29.143-29.143q-5.428-5.428-5.428-12.857t5.428-12.857l102.285-102.286q5.428-5.428 12.857-5.428t12.857 5.428zM438.857 356.572v-274.286q0-34-24.143-58.143t-58.143-24.143h-274.286q-34 0-58.143 24.143t-24.143 58.143v274.286q0 34 24.143 58.143t58.143 24.143h274.286q34 0 58.143-24.143t24.143-58.143z" horiz-adv-x="439" />
<glyph unicode="&#xe631;" d="M310.857 201.143v182.857h-128v-324.857q34 18 60.857 39.143 67.143 52.572 67.143 102.857zM365.714 420.572v-219.428q0-24.572-9.572-48.714t-23.714-42.857-33.714-36.428-36.143-29.428-34.572-22.143-25.572-14.143-12.143-5.714q-3.429-1.714-7.429-1.714t-7.428 1.714q-4.572 2-12.143 5.714t-25.571 14.143-34.572 22.143-36.143 29.428-33.715 36.428-23.715 42.857-9.572 48.714v219.428q0 7.429 5.428 12.857t12.857 5.428h329.143q7.428 0 12.857-5.428t5.428-12.857z" horiz-adv-x="366" />
<glyph unicode="&#xe632;" d="M333.428 292.572q5.143-52-37.428-73.714 33.428-8 50-29.428t12.857-61.143q-2-20.286-9.286-35.714t-18.428-25.428-27.714-16.714-34.714-9.857-41.572-4.286v-72.857h-44v71.714q-22.857 0-34.857 0.286v-72h-44v72.857q-5.143 0-15.428 0.143t-15.715 0.143h-57.143l8.857 52.286h31.715q14.285 0 16.572 14.572v114.857h4.572q-1.715 0.286-4.572 0.286v82q-3.715 19.428-25.428 19.428h-31.715v46.857l60.572-0.286q18.285 0 27.715 0.286v72h44v-70.571q23.429 0.571 34.857 0.571v70h44v-72q22.572-2 40-6.428t32.286-12.857 23.572-22.285 10.428-32.714zM272 136.857q0 10.286-4.286 18.286t-10.572 13.143-16.428 8.714-18.714 5.286-21.143 2.572-19.715 0.857-18.428-0.286-13.572-0.286v-96.572q2.286 0 10.572-0.143t13.714-0.143 15.143 0.428 16.715 1.143 16.286 2.428 15.857 4 13.571 6 11.286 8.572 7 11.428 2.714 14.572zM251.714 272.857q0 9.429-3.571 16.715t-8.714 12-13.714 8-15.714 4.714-17.571 2.286-16.572 0.714-15.428-0.286-11.286-0.143v-87.714q1.429 0 9.857-0.143t13.286 0 14.286 0.572 15.714 1.571 14.714 3.143 13.857 5.286 10.572 7.714 7.714 11 2.571 14.572z" horiz-adv-x="366" />
<glyph unicode="&#xe633;" d="M109.715 73.143q0-22.857-16-38.857t-38.857-16-38.857 16-16 38.857 16 38.857 38.857 16 38.857-16 16-38.857zM109.715 219.429q0-22.857-16-38.857t-38.857-16-38.857 16-16 38.857 16 38.857 38.857 16 38.857-16 16-38.857zM512 100.572v-54.857q0-3.714-2.714-6.428t-6.428-2.714h-347.428q-3.714 0-6.428 2.714t-2.714 6.428v54.857q0 3.714 2.714 6.428t6.428 2.714h347.428q3.714 0 6.428-2.714t2.714-6.428zM109.715 365.714q0-22.857-16-38.857t-38.857-16-38.857 16-16 38.857 16 38.857 38.857 16 38.857-16 16-38.857zM512 246.857v-54.857q0-3.714-2.714-6.428t-6.428-2.714h-347.428q-3.714 0-6.428 2.714t-2.714 6.428v54.857q0 3.714 2.714 6.429t6.428 2.714h347.428q3.714 0 6.428-2.714t2.714-6.428zM512 393.143v-54.857q0-3.714-2.714-6.428t-6.428-2.714h-347.428q-3.714 0-6.428 2.714t-2.714 6.428v54.857q0 3.714 2.714 6.429t6.428 2.714h347.428q3.714 0 6.428-2.714t2.714-6.429z" />
<glyph unicode="&#xe634;" d="M146.857 134l23.143 85.428h-45.428l21.428-85.714q0.286-0.286 0.286-0.857t0.286-0.857q0 0.286 0.143 1t0.143 1zM180 256l10 36.572h-83.428l9.143-36.572h64.285zM234.857 256h39.715l-10 36.572h-20zM363.143 133.714l22.286 85.714h-46.286l23.143-85.428q0-0.286 0.143-1t0.428-1q0 0.286 0.143 0.857t0.143 0.857zM394.857 256l9.428 36.572h-84.857l9.714-36.572h65.714zM512 246.857v-18.285q0-4-2.572-6.572t-6.572-2.572h-60.857l-46.857-176q-2-6.857-8.857-6.857h-45.428q-6.857 0-8.857 6.857l-47.428 176h-59.714l-47.714-176q-2-6.857-8.857-6.857h-45.428q-3.143 0-5.572 2t-3 4.857l-45.715 176h-59.428q-4 0-6.572 2.571t-2.571 6.572v18.286q0 4 2.571 6.572t6.572 2.571h50l-9.428 36.572h-40.572q-4 0-6.572 2.571t-2.571 6.572v18.286q0 4 2.571 6.572t6.572 2.571h31.143l-25.428 98.286q-1.428 4.286 1.428 8 2.857 3.428 7.428 3.428h39.143q7.428 0 8.857-6.857l25.715-102.857h102.572l27.714 102.857q2 6.857 8.857 6.857h36q6.857 0 8.857-6.857l28-102.857h104.286l26.572 102.857q1.428 6.857 8.857 6.857h39.143q4.572 0 7.428-3.428 2.857-3.714 1.428-8l-26-98.286h31.714q4 0 6.572-2.571t2.571-6.572v-18.286q0-4-2.572-6.572t-6.572-2.572h-41.428l-9.714-36.571h51.143q4 0 6.572-2.572t2.572-6.571z" />
<glyph unicode="&#xe635;" d="M250.286 56.857q0 6-1.286 11.572t-2.714 10.286-5 9.857-6 8.714-7.572 8.428-7.857 7.286-9.143 7.286-8.857 6.572-9.429 6.572-8.714 6q-4.857 0.572-14.286 0.572-15.428 0-30.286-2t-30.857-7.143-28-13.143-19.715-21.428-7.715-30.572q0-19.428 10.143-34.714t26.572-24 34.428-13 36.285-4.286q16.857 0 32.143 3.572t28.715 11.143 21.286 21 7.857 31.428zM216 303.143q0 17.143-4.714 36.428t-13.428 37.286-24 29.714-34.143 11.714q-26.572 0-41.143-19.714t-14.572-47.143q0-13.428 3.285-28.285t10.143-29.714 16-26.714 22.285-19.286 27.714-7.428q27.714 0 40.143 17.286t12.429 45.857zM178.571 438.857h124.857l-38.572-22.572h-38.572q20.286-12.857 31.428-36t11.143-48.285q0-21.143-6.572-37.572t-16-26.428-18.857-18.428-16-17.428-6.571-19.286q0-7.428 4.714-14.572t12.286-13.714 16.714-13.714 18.286-15.857 16.714-18.857 12.286-24.286 4.714-30.428q0-45.714-40-80.572-43.428-37.429-120-37.429-16.857 0-34.143 2.857t-34.857 9.572-31 16.572-22 25.428-8.572 34.714q0 17.428 10.572 38.572 9.143 18.286 27.428 31.572t41.428 20.286 44.285 10.286 42.857 3.857q-18.286 23.714-18.286 42.572 0 3.428 0.571 6.714t1.429 5.572 2.286 6.143 2 6.143q-11.428-1.428-20-1.428-42.572 0-73 28t-30.428 70.286q0 40 27.143 71.572t66.857 40.428q26.857 5.714 53.428 5.714zM475.428 365.714v-36.571h-73.143v-73.143h-36.572v73.143h-73.143v36.571h73.143v73.143h36.572v-73.143h73.143z" horiz-adv-x="476" />
<glyph unicode="&#xe636;" d="M438.857 219.429q0-44.572-17.428-85.143t-46.857-70-70-46.857-85.143-17.428q-49.143 0-93.428 20.714t-75.428 58.428q-2 2.857-1.857 6.428t2.428 5.857l39.143 39.428q2.857 2.572 7.143 2.572 4.572-0.572 6.572-3.428 20.857-27.143 51.143-42t64.286-14.857q29.714 0 56.714 11.572t46.714 31.286 31.286 46.714 11.572 56.714-11.572 56.714-31.286 46.714-46.714 31.286-56.714 11.571q-28 0-53.714-10.143t-45.715-29l39.143-39.428q8.857-8.572 4-19.714-4.857-11.428-16.857-11.428h-128q-7.428 0-12.857 5.428t-5.428 12.857v128q0 12 11.428 16.857 11.143 4.857 19.715-4l37.143-36.857q30.572 28.857 69.857 44.714t81.286 15.857q44.572 0 85.143-17.428t70-46.857 46.857-70 17.428-85.143z" horiz-adv-x="439" />
<glyph unicode="&#xe637;" d="M512 192v237.714q0 3.714-2.714 6.428t-6.428 2.714h-457.143q-3.715 0-6.428-2.714t-2.715-6.428v-237.714q0-3.714 2.715-6.428t6.428-2.714h457.143q3.714 0 6.428 2.714t2.714 6.428zM548.572 429.714v-310.857q0-18.857-13.428-32.286t-32.286-13.428h-155.429q0-10.572 4.572-22.143t9.143-20.286 4.572-12.428q0-7.428-5.428-12.857t-12.857-5.428h-146.286q-7.428 0-12.857 5.428t-5.429 12.857q0 4 4.572 12.572t9.143 20 4.571 22.286h-155.429q-18.857 0-32.285 13.428t-13.428 32.286v310.857q0 18.857 13.428 32.286t32.285 13.428h457.143q18.857 0 32.285-13.428t13.428-32.286z" horiz-adv-x="549" />
<glyph unicode="&#xe638;" d="M365.714 155.429v54.857q0 4-2.572 6.572t-6.572 2.572h-64v64q0 4-2.572 6.572t-6.572 2.571h-54.857q-4 0-6.571-2.571t-2.571-6.572v-64h-64q-4 0-6.571-2.572t-2.571-6.572v-54.857q0-4 2.571-6.572t6.572-2.572h64v-64q0-4 2.571-6.572t6.571-2.572h54.857q4 0 6.572 2.572t2.572 6.572v64h64q4 0 6.572 2.572t2.572 6.572zM182.857 365.714h146.286v36.572h-146.286v-36.572zM73.143 365.714v-365.714h-9.143q-26.285 0-45.143 18.857t-18.857 45.143v237.714q0 26.286 18.857 45.143t45.143 18.857h9.143zM411.428 365.714v-365.714h-310.857v365.714h45.714v45.714q0 11.428 8 19.428t19.428 8h164.572q11.428 0 19.428-8t8-19.428v-45.714h45.714zM512 301.714v-237.714q0-26.286-18.857-45.143t-45.143-18.857h-9.143v365.714h9.143q26.286 0 45.143-18.857t18.857-45.143z" />
<glyph unicode="&#xe639;" d="M512 137.143v-54.857q0-3.714-2.714-6.428t-6.428-2.714h-393.143v-54.857q0-3.714-2.715-6.428t-6.428-2.714q-3.428 0-6.857 2.857l-91.143 91.428q-2.571 2.572-2.571 6.286 0 4 2.571 6.572l91.428 91.428q2.572 2.572 6.572 2.572 3.715 0 6.428-2.714t2.715-6.428v-54.857h393.143q3.714 0 6.428-2.714t2.714-6.428zM512 292.572q0-4-2.572-6.571l-91.428-91.428q-2.572-2.572-6.572-2.572-3.714 0-6.428 2.714t-2.714 6.428v54.857h-393.143q-3.715 0-6.428 2.714t-2.715 6.429v54.857q0 3.714 2.715 6.429t6.428 2.714h393.143v54.857q0 4 2.572 6.572t6.572 2.572q3.428 0 6.857-2.857l91.143-91.143q2.572-2.572 2.572-6.572z" />
<glyph unicode="&#xe63a;" d="M109.715 91.429q0-7.428-5.428-12.857t-12.857-5.428-12.857 5.428-5.428 12.857 5.428 12.857 12.857 5.428 12.857-5.428 5.428-12.857zM402.286 74q0-34.572-20.857-54.286t-55.428-19.714h-249.714q-34.572 0-55.428 19.714t-20.857 54.286q0 19.428 1.571 37.428t6.857 39.428 13.572 37.857 23.143 29.428 34.285 17.286q-6.285-14.857-6.285-34.286v-58q-16.572-5.714-26.572-20t-10-31.714q0-22.857 16-38.857t38.857-16 38.857 16 16 38.857q0 17.428-10.143 31.714t-26.428 20v58q0 17.714 7.143 26.572 37.715-29.714 84.285-29.714t84.285 29.714q7.143-8.857 7.143-26.572v-18.286q-30.286 0-51.714-21.428t-21.428-51.714v-25.428q-9.143-8.286-9.143-20.286 0-11.428 8-19.428t19.429-8 19.428 8 8 19.428q0 12-9.143 20.286v25.428q0 14.857 10.857 25.714t25.714 10.857 25.714-10.857 10.857-25.714v-25.428q-9.143-8.286-9.143-20.286 0-11.428 8-19.428t19.428-8 19.428 8 8 19.428q0 12-9.143 20.286v25.428q0 19.428-9.857 36.428t-26.714 26.714q0 2.857 0.143 12.143t0 13.714-0.714 11.857-2 13.428-3.714 11.428q19.428-4.286 34.286-17.286t23.143-29.428 13.572-37.857 6.857-39.428 1.572-37.428zM310.857 329.143q0-45.428-32.143-77.572t-77.572-32.143-77.572 32.143-32.143 77.572 32.143 77.571 77.572 32.143 77.572-32.143 32.143-77.571z" horiz-adv-x="403" />
<glyph unicode="&#xe63b;" d="M365.714 274.286q0 7.429-5.428 12.857t-12.857 5.428-12.857-5.428-5.428-12.857 5.428-12.857 12.857-5.428 12.857 5.428 5.428 12.857zM402.286 274.286q0-17.714-10.143-31.714t-26.428-20v-112.857q0-45.428-37.572-77.572t-90.428-32.143-90.428 32.143-37.572 77.572v37.714q-46.857 5.714-78.285 36.572t-31.428 72v146.286q0 7.428 5.428 12.857t12.857 5.428q1.715 0 4.572-0.571 4.857 8.571 13.428 13.714t18.572 5.143q15.143 0 25.857-10.715t10.715-25.857-10.715-25.857-25.857-10.714q-9.428 0-18.285 5.143v-114.857q0-30.286 26.857-51.714t64.571-21.428 64.572 21.428 26.857 51.714v114.857q-8.857-5.143-18.285-5.143-15.143 0-25.857 10.714t-10.714 25.857 10.714 25.857 25.857 10.714q10 0 18.572-5.143t13.428-13.715q2.857 0.572 4.572 0.572 7.428 0 12.857-5.428t5.429-12.857v-146.286q0-41.143-31.428-72t-78.286-36.572v-37.714q0-30.286 26.857-51.714t64.571-21.428 64.572 21.428 26.857 51.714v112.857q-16.286 6-26.428 20t-10.143 31.715q0 22.857 16 38.857t38.857 16 38.857-16 16-38.857z" horiz-adv-x="403" />
<glyph unicode="&#xe63c;" d="M182.857 365.714h146.286v36.572h-146.286v-36.572zM82.285 365.714v-365.714h-18.285q-26.285 0-45.143 18.857t-18.857 45.143v237.714q0 26.286 18.857 45.143t45.143 18.857h18.285zM402.286 365.714v-365.714h-292.572v365.714h36.572v45.714q0 11.428 8 19.428t19.428 8h164.571q11.428 0 19.428-8t8-19.428v-45.714h36.572zM512 301.714v-237.714q0-26.286-18.857-45.143t-45.143-18.857h-18.286v365.714h18.286q26.286 0 45.143-18.857t18.857-45.143z" />
<glyph unicode="&#xe63d;" d="M182.857 457.143v-182.857q0-17.428-10.143-31.714t-26.428-20v-222.572q0-14.857-10.857-25.714t-25.715-10.857h-36.572q-14.857 0-25.715 10.857t-10.857 25.714v222.571q-16.285 5.714-26.428 20t-10.143 31.715v182.857q0 7.428 5.428 12.857t12.857 5.428 12.857-5.428 5.428-12.857v-118.857q0-7.428 5.428-12.857t12.857-5.428 12.857 5.428 5.428 12.857v118.857q0 7.428 5.428 12.857t12.857 5.428 12.857-5.428 5.428-12.857v-118.857q0-7.428 5.428-12.857t12.857-5.428 12.857 5.428 5.428 12.857v118.857q0 7.428 5.428 12.857t12.857 5.428 12.857-5.428 5.428-12.857zM402.286 457.143v-457.143q0-14.857-10.857-25.714t-25.714-10.857h-36.572q-14.857 0-25.714 10.857t-10.857 25.714v146.286h-64q-3.714 0-6.428 2.714t-2.714 6.428v228.571q0 37.715 26.857 64.572t64.571 26.857h73.143q7.428 0 12.857-5.428t5.428-12.857z" horiz-adv-x="403" />
<glyph unicode="&#xe63e;" d="M475.428 292.572q0 22.857-16 38.857t-38.857 16h-18.286v-109.714h18.286q22.857 0 38.857 16t16 38.857zM0 73.143h512q0-30.286-21.428-51.714t-51.714-21.428h-365.714q-30.285 0-51.715 21.428t-21.428 51.714zM530.285 292.572q0-45.428-32.143-77.571t-77.572-32.143h-18.286v-9.143q0-26.286-18.857-45.143t-45.143-18.857h-201.143q-26.285 0-45.143 18.857t-18.857 45.143v210.286q0 7.428 5.428 12.857t12.857 5.429h329.143q45.428 0 77.572-32.143t32.143-77.572z" horiz-adv-x="549" />
<glyph unicode="&#xe63f;" d="M322.857 304.857l4.572 50h-252.571l13.428-152.571h174.857l-6.286-65.143-56.286-15.143-56 15.143-3.714 40h-50l6.285-79.428 103.428-28.572h1.143v0.286l102.571 28.286 14.286 155.428h-184l-4.286 51.715h192.571zM0 438.857h402.286l-36.572-410.857-165.143-46.286-164 46.286z" horiz-adv-x="403" />
<glyph unicode="&#xe640;" d="M512 91.429v-36.572q0-7.428-5.428-12.857t-12.857-5.428h-475.428q-7.428 0-12.857 5.428t-5.428 12.857v36.572q0 7.428 5.428 12.857t12.857 5.428h475.428q7.428 0 12.857-5.428t5.428-12.857zM512 201.143v-36.572q0-7.428-5.428-12.857t-12.857-5.428h-475.428q-7.428 0-12.857 5.428t-5.428 12.857v36.572q0 7.428 5.428 12.857t12.857 5.428h475.428q7.428 0 12.857-5.428t5.428-12.857zM512 310.857v-36.571q0-7.428-5.428-12.857t-12.857-5.428h-475.428q-7.428 0-12.857 5.428t-5.428 12.857v36.572q0 7.428 5.428 12.857t12.857 5.429h475.428q7.428 0 12.857-5.428t5.428-12.857zM512 420.572v-36.571q0-7.429-5.428-12.857t-12.857-5.428h-475.428q-7.428 0-12.857 5.428t-5.428 12.857v36.571q0 7.429 5.428 12.857t12.857 5.428h475.428q7.428 0 12.857-5.428t5.428-12.857z" />
<glyph unicode="&#xe641;" d="M114.857 273.429l141.143-87.143-97.714-81.428-140 91.143zM396.572 114.857v-30.857l-140-83.714v-0.286l-0.286 0.286-0.286-0.286v0.286l-139.714 83.714v30.857l42-27.428 97.714 81.143v0.572l0.286-0.286 0.286 0.286v-0.572l98-81.143zM158.286 441.714l97.714-81.428-141.143-86.857-96.572 77.143zM397.143 273.429l96.572-77.428-139.714-91.143-98 81.428zM354 441.714l139.714-91.143-96.572-77.143-141.143 86.857z" />
<glyph unicode="&#xe642;" d="M277.428 120v-60.286q0-19.143-11.143-19.143-6.572 0-12.857 6.286v86q6.285 6.286 12.857 6.286 11.143 0 11.143-19.143zM374 119.714v-13.143h-25.714v13.143q0 19.428 12.857 19.428t12.857-19.428zM98 182h30.572v26.857h-89.143v-26.857h30v-162.572h28.572v162.572zM180.286 19.429h25.428v141.143h-25.428v-108q-8.572-12-16.286-12-5.143 0-6 6-0.286 0.857-0.286 10v104h-25.428v-111.714q0-14 2.286-20.857 3.429-10.572 16.572-10.572 13.714 0 29.143 17.428v-15.428zM302.857 61.714v56.286q0 20.857-2.572 28.286-4.857 16-20.286 16-14.286 0-26.572-15.428v62h-25.428v-189.429h25.428v13.714q12.857-15.714 26.572-15.714 15.428 0 20.286 15.714 2.572 7.714 2.572 28.572zM399.428 64.572v3.714h-26q0-14.572-0.572-17.428-2-10.286-11.428-10.286-13.143 0-13.143 19.714v24.857h51.143v29.428q0 22.572-7.714 33.143-11.143 14.572-30.286 14.572-19.428 0-30.572-14.572-8-10.572-8-33.143v-49.428q0-22.572 8.286-33.143 11.143-14.572 30.857-14.572 20.572 0 30.857 15.143 5.143 7.714 6 15.428 0.572 2.572 0.572 16.572zM225.714 325.429v60q0 19.714-12.286 19.714t-12.286-19.714v-60q0-20 12.286-20t12.286 20zM431.143 110.857q0-66.857-7.428-100-4-16.857-16.572-28.286t-29.143-13.143q-52.572-6-158.571-6t-158.571 6q-16.572 1.714-29.285 13.143t-16.428 28.286q-7.428 32-7.428 100 0 66.857 7.428 100 4 16.857 16.572 28.286t29.428 13.428q52.285 5.714 158.286 5.714t158.571-5.714q16.572-2 29.286-13.428t16.428-28.286q7.428-32 7.428-100zM146 475.429h29.143l-34.571-114v-77.428h-28.572v77.428q-4 21.143-17.428 60.572-10.572 29.428-18.572 53.428h30.285l20.285-75.143zM251.714 380.286v-50q0-23.143-8-33.714-10.572-14.572-30.286-14.572-19.143 0-30 14.572-8 10.857-8 33.714v50q0 22.857 8 33.428 10.857 14.572 30 14.572 19.714 0 30.286-14.572 8-10.572 8-33.428zM347.428 426.572v-142.571h-26v15.714q-15.143-17.714-29.428-17.714-13.143 0-16.857 10.572-2.286 6.857-2.286 21.428v112.572h26v-104.857q0-9.428 0.286-10 0.857-6.286 6-6.286 7.714 0 16.286 12.286v108.857h26z" horiz-adv-x="439" />
<glyph unicode="&#xe643;" d="M438.857 219.429q0-59.714-29.428-110.143t-79.857-79.857-110.143-29.428-110.143 29.428-79.857 79.857-29.428 110.143 29.428 110.143 79.857 79.857 110.143 29.428 110.143-29.428 79.857-79.857 29.428-110.143z" horiz-adv-x="439" />
<glyph unicode="&#xe644;" d="M475.428 137.143v-9.143q0-37.714-26.857-64.572t-64.572-26.857h-36.572q-37.714 0-64.572 26.857t-26.857 64.572v137.143h-64q-0.571-29.143-4.143-54.428t-8.714-44.572-13.857-36.143-16.285-28.428-19.286-22.143-19.857-16.714-21.143-12.572-19.715-9.143-18.715-7.286q-1.143-0.572-9.143-3.714-2.285-0.572-3.428-0.572-6.285 0-8.572 5.714l-20.285 50.857q-1.428 3.714 0 7.143t4.857 4.857q2 0.857 5.715 2.143t5.143 1.857q8.857 3.428 13.285 5.286t12.715 5.714 13 7.428 12 9.286 11.572 12.143 9.857 15.286 8.715 19.572 6.428 23.857 4.857 29.428 1.857 35.143h-73.143q-4 0-6.572 2.572t-2.572 6.572v45.714q0 4 2.572 6.572t6.572 2.571h347.428q4 0 6.572-2.571t2.572-6.572v-45.714q0-4-2.572-6.572t-6.572-2.572h-64v-146.286q0-7.428 5.428-12.857t12.857-5.428h36.572q7.428 0 12.857 5.428t5.428 12.857v18.286q0 4 2.572 6.572t6.572 2.572h54.857q4 0 6.572-2.572t2.572-6.572zM365.714 429.714v-45.714q0-4-2.572-6.571t-6.572-2.572h-274.286q-4 0-6.572 2.572t-2.572 6.571v45.714q0 4 2.572 6.572t6.572 2.572h274.286q4 0 6.572-2.572t2.572-6.572z" horiz-adv-x="476" />
<glyph unicode="&#xe645;" d="M416 384v64h-320v-64h-96v-64c0-53.019 42.979-96 96-96 10.038 0 19.715 1.543 28.81 4.401 23.087-33.004 58.304-56.898 99.19-65.198v-99.203h-32c-35.347 0-64-28.653-64-64h256c0 35.347-28.653 64-64 64h-32v99.203c40.886 8.3 76.103 32.193 99.19 65.198 9.095-2.858 18.772-4.401 28.81-4.401 53.021 0 96 42.981 96 96v64h-96zM96 262c-31.981 0-58 26.019-58 58v32h58v-32c0-20.093 3.715-39.316 10.477-57.034-3.401-0.623-6.899-0.966-10.477-0.966zM474 320c0-31.981-26.019-58-58-58-3.578 0-7.076 0.343-10.477 0.966 6.762 17.718 10.477 36.941 10.477 57.034v32h58v-32z" />
<glyph unicode="&#xe646;" d="M416 320h-32v48c0 44.183-85.961 80-192 80s-192-35.817-192-80v-288c0-44.183 85.961-80 192-80s192 35.817 192 80v48h32c52.8 0 96 43.2 96 96s-43.2 96-96 96zM88.028 385.199c28.971 9.545 65.895 14.801 103.972 14.801s75.002-5.256 103.972-14.801c18.497-6.094 29.704-12.623 35.705-17.199-6.001-4.576-17.208-11.104-35.705-17.199-28.97-9.545-65.895-14.801-103.972-14.801s-75.001 5.256-103.972 14.801c-18.497 6.095-29.704 12.623-35.705 17.199 6.001 4.576 17.208 11.104 35.705 17.199zM452.182 195.818c-4.414-4.414-13.945-11.818-28.182-11.818h-40v80h40c14.237 0 23.768-7.405 28.182-11.819s11.818-13.944 11.818-28.181-7.404-23.768-11.818-28.182z" />
<glyph unicode="&#xe647;" d="M172.286 36.572h-49.143q-3.715 0-6.428 2.572t-2.715 6.572v94.286h-82.285q-3.715 0-6.428 2.572t-2.715 6.572v29.428q0 3.714 2.715 6.428t6.428 2.714h82.285v24.286h-82.285q-3.715 0-6.428 2.572t-2.715 6.572v29.714q0 3.714 2.715 6.428t6.428 2.714h61.143l-91.715 165.143q-2.285 4.572 0 9.143 2.857 4.571 8 4.571h55.428q5.428 0 8.285-5.143l61.429-121.428q5.428-10.857 16-35.714 2.857 6.857 8.714 19.428t7.857 17.428l54.571 120q2.286 5.428 8.286 5.428h54.572q4.857 0 7.714-4.572 2.572-4 0.286-8.857l-89.428-165.429h61.428q3.714 0 6.428-2.714t2.714-6.428v-29.714q0-4-2.714-6.572t-6.428-2.572h-82.857v-24.286h82.857q3.714 0 6.428-2.714t2.714-6.428v-29.428q0-4-2.714-6.572t-6.428-2.572h-82.857v-94.286q0-3.714-2.714-6.428t-6.429-2.714z" horiz-adv-x="293" />
<glyph unicode="&#xe648;" d="M476.698 442.679l-2.014 2.021c-47.074 47.067-124.097 47.067-171.163 0l-109.053-109.068c-47.067-47.066-47.067-124.088 0-171.155l2.013-2.013c3.916-3.924 8.073-7.462 12.368-10.729l39.924 39.925c-4.651 2.747-9.063 6.036-13.058 10.030l-2.021 2.021c-25.557 25.549-25.557 67.136 0 92.695l109.064 109.056c25.558 25.559 67.137 25.559 92.693 0l2.021-2.012c25.55-25.558 25.55-67.146 0-92.695l-49.343-49.343c8.566-21.154 12.624-43.7 12.269-66.193l76.302 76.302c47.067 47.068 47.067 124.089-0.002 171.158zM315.521 285.533c-3.916 3.916-8.073 7.461-12.368 10.72l-39.924-39.916c4.652-2.748 9.063-6.037 13.058-10.031l2.021-2.020c25.558-25.558 25.558-67.136 0-92.694l-109.065-109.067c-25.559-25.551-67.138-25.551-92.694 0l-2.021 2.021c-25.549 25.56-25.549 67.138 0 92.694l49.344 49.343c-8.567 21.153-12.623 43.701-12.269 66.193l-76.301-76.299c-47.068-47.066-47.068-124.089 0-171.162l2.013-2.016c47.076-47.064 124.096-47.064 171.164 0l109.055 109.059c47.067 47.066 47.067 124.097 0 171.163l-2.013 2.012z" />
<glyph unicode="&#xe649;" d="M380.931-32c56.863 103.016 66.444 260.153-156.931 254.912v-126.912l-192 192 192 192v-124.186c267.481 6.971 297.285-236.107 156.931-387.814z" />
<glyph unicode="&#xe64a;" d="M288 355.814v124.186l192-192-192-192v126.912c-223.375 5.241-213.794-151.896-156.93-254.912-140.356 151.707-110.55 394.785 156.93 387.814z" />
<glyph unicode="&#xe64b;" d="M131.070 480c-56.864-103.016-66.445-260.152 156.93-254.912v126.912l192-192-192-192v124.186c-267.48-6.971-297.286 236.107-156.93 387.814z" />
<glyph unicode="&#xe64c;" d="M224 92.186v-124.186l-192 192 192 192v-126.912c223.375-5.24 213.794 151.896 156.931 254.912 140.355-151.707 110.55-394.785-156.931-387.814z" />
<glyph unicode="&#xe64d;" d="M256.572 341.143v-29.143q0-4-2.571-6.571t-6.571-2.572h-48q-6.572-41.143-36.857-66.857t-78.857-31.428q47.714-50.857 131.143-153.143 4-4.572 1.143-9.714-2.286-5.143-8.286-5.143h-55.714q-4.572 0-7.143 3.428-87.428 104.857-142.286 163.143-2.571 2.572-2.571 6.286v36.286q0 3.714 2.715 6.428t6.428 2.714h32q37.715 0 60.715 12.286t29.285 35.714h-122q-4 0-6.572 2.571t-2.571 6.572v29.143q0 4 2.571 6.572t6.572 2.572h118q-16.285 32.286-76.572 32.286h-41.428q-3.715 0-6.428 2.714t-2.715 6.428v38q0 4 2.571 6.572t6.572 2.571h237.714q4 0 6.572-2.571t2.572-6.572v-29.143q0-4-2.571-6.572t-6.571-2.572h-66.572q13.428-17.428 18.286-41.143h48.857q4 0 6.571-2.571t2.572-6.572z" horiz-adv-x="257" />
<glyph unicode="&#xe64e;" d="M279.428 136.857q0-43.714-28.428-75.286t-73.857-39v-50q0-4-2.571-6.572t-6.572-2.571h-38.572q-3.715 0-6.428 2.714t-2.715 6.429v50q-18.857 2.572-36.428 8.857t-29 12.714-21.143 13.714-13.285 10.714-5 5.143q-4.857 6-0.572 11.714l29.428 38.572q2 2.857 6.572 3.428 4.285 0.572 6.857-2.572l0.572-0.572q32.285-28.286 69.428-35.714 10.572-2.286 21.143-2.286 23.143 0 40.714 12.286t17.572 34.857q0 8-4.286 15.143t-9.572 12-16.714 10.714-18.857 9.143-22.857 9.286q-11.143 4.572-17.572 7.143t-17.572 7.572-17.857 8.857-16.143 10.143-15.285 12.143-12.428 14-10.143 16.572-6 19-2.428 22.286q0 39.428 28 69.143t72.857 38.286v51.428q0 3.715 2.715 6.428t6.429 2.715h38.572q4 0 6.572-2.572t2.571-6.572v-50.285q16.285-1.715 31.571-6.572t24.857-9.572 18.143-10.714 11.143-8.286 4.286-4q4.857-5.143 1.428-10.857l-23.143-41.715q-2.286-4.286-6.571-4.571-4-0.857-7.714 2-0.857 0.857-4.143 3.428t-11.143 7.572-16.714 9.143-21.286 7.428-24.428 3.286q-27.143 0-44.285-12.286t-17.143-31.714q0-7.428 2.428-13.714t8.428-11.857 11.285-9.428 16-8.857 17.286-7.714 20-7.857q15.143-5.714 23.143-9t21.715-10 21.572-12.143 17.714-14.286 15.143-18.143 9-21.857 3.714-26.857z" horiz-adv-x="293" />
<glyph unicode="&#xe64f;" d="M291.428 150.572v-104.857q0-4-2.572-6.572t-6.572-2.572h-273.143q-4 0-6.572 2.572t-2.571 6.572v42.857q0 3.714 2.715 6.428t6.428 2.714h27.715v109.428h-27.143q-4 0-6.572 2.714t-2.571 6.428v37.428q0 4 2.571 6.572t6.572 2.571h27.143v63.715q0 48.857 35.285 80.571t89.857 31.715q52.857 0 95.715-35.715 2.572-2.285 2.857-5.857t-2-6.428l-29.428-36.286q-2.571-3.143-6.286-3.428-3.714-0.572-6.572 2-1.429 1.428-7.428 5.428t-19.714 9.143-26.572 5.143q-24.286 0-39.143-13.428t-14.857-35.143v-61.428h87.143q3.714 0 6.429-2.572t2.714-6.571v-37.428q0-3.714-2.714-6.428t-6.428-2.714h-87.143v-108.286h118.285v51.714q0 3.714 2.571 6.428t6.571 2.714h46.286q4 0 6.572-2.714t2.572-6.428z" horiz-adv-x="293" />
<glyph unicode="&#xe650;" d="M278.857 102l10-45.428q0.857-3.428-0.857-6.428t-4.857-4.143l-1.428-0.286q-1.143-0.572-3-1t-4.572-1.286-6.143-1.572-7.286-1.428-8.572-1.428-9.572-1.286-10.428-0.857-11-0.286q-66.857 0-116.857 37.286t-68 100.428h-27.143q-3.715 0-6.428 2.714t-2.715 6.428v32.286q0 3.714 2.715 6.428t6.428 2.714h18.857q-0.572 16.286 0.285 30h-19.143q-4 0-6.572 2.571t-2.571 6.572v32.572q0 4 2.571 6.572t6.572 2.571h28q19.143 60 69.572 96.572t114.429 36.572q29.143 0 55.428-6.572 3.143-0.857 5.714-4.286 1.714-3.143 0.857-6.857l-12.286-45.429q-0.857-3.714-4-5.571t-6.857-0.714l-1.143 0.285q-1.143 0.286-3.286 0.715l-5 1t-6.428 1-7.428 0.857-8.286 0.714-8.428 0.286q-36 0-64.572-18.286t-42.857-50.285h133.714q4.571 0 7.143-3.429 2.857-3.428 2-7.428l-6.857-32.572q-1.429-7.428-9.143-7.428h-139.429q-0.857-10.572 0-30h131.143q4.286 0 7.143-3.429 2.571-3.428 1.714-7.714l-6.857-32q-0.571-3.143-3.143-5.286t-5.714-2.143h-110.572q13.715-33.428 42.715-53t65.286-19.572q5.143 0 10.286 0.428t9.572 1 8.428 1.286 7 1.428 5.286 1.286l3.428 0.857 1.428 0.572q3.714 1.428 7.428-0.572 3.428-2 4.286-6z" horiz-adv-x="293" />
<glyph unicode="&#xe651;" d="M395.749 207.954c-0.647 64.841 52.879 95.938 55.271 97.483-30.076 44.010-76.925 50.039-93.621 50.736-39.871 4.037-77.798-23.474-98.033-23.474-20.184 0-51.409 22.877-84.476 22.276-43.458-0.646-83.529-25.269-105.906-64.19-45.152-78.349-11.563-194.42 32.445-257.963 21.504-31.102 47.146-66.038 80.813-64.79 32.421 1.294 44.681 20.979 83.878 20.979s50.214-20.979 84.525-20.335c34.887 0.648 56.991 31.699 78.346 62.898 24.695 36.084 34.863 71.019 35.462 72.813-0.774 0.353-68.030 26.118-68.704 103.567zM331.281 398.239c17.869 21.679 29.93 51.756 26.64 81.761-25.739-1.048-56.939-17.145-75.405-38.775-16.571-19.188-31.074-49.813-27.187-79.218 28.733-2.242 58.064 14.602 75.952 36.232z" />
<glyph unicode="&#xe652;" d="M192 448h320v-64h-320v64zM192 256h320v-64h-320v64zM192 64h320v-64h-320v64zM0 416c0 35.346 28.654 64 64 64s64-28.654 64-64c0-35.346-28.654-64-64-64s-64 28.654-64 64zM0 224c0 35.346 28.654 64 64 64s64-28.654 64-64c0-35.346-28.654-64-64-64s-64 28.654-64 64zM0 32c0 35.346 28.654 64 64 64s64-28.654 64-64c0-35.346-28.654-64-64-64s-64 28.654-64 64z" />
<glyph unicode="&#xe653;" d="M32 384h448v-96h-448zM32 256h448v-96h-448zM32 128h448v-96h-448z" />
<glyph unicode="&#xe654;" d="M0 480h128v-128h-128zM192 448h320v-64h-320zM0 288h128v-128h-128zM192 256h320v-64h-320zM0 96h128v-128h-128zM192 64h320v-64h-320z" />
<glyph unicode="&#xe655;" d="M256 480c-141.385 0-256-114.615-256-256s114.615-256 256-256 256 114.615 256 256-114.615 256-256 256zM406.434 260.937c-16.979-95.648-111.854-176.648-140.39-195.155-28.544-18.503-54.577 7.411-64.019 26.997-10.808 22.354-43.205 143.47-51.684 153.51-8.482 10.019-33.938-10.040-33.938-10.040l-12.346 16.188c0 0 51.691 61.724 91.020 69.439 41.702 8.183 41.64-64.033 51.67-104.121 9.7-38.782 16.22-60.976 24.688-60.976 8.485 0 24.691 21.631 42.426 54.785 17.768 33.188-0.769 62.505-35.486 41.646 13.893 83.326 145.031 103.36 128.059 7.727z" />
<glyph unicode="&#xe656;" d="M358.774 480c-84.382-139.493-151.15-70.891-248.795-171.215-86.168-88.533-56.291-195.153 16.262-231.872 71.615 36.594 144.884 118.411 199.225 236.862 0 0 48.833-149.572-100.745-293.687 72.634-85.074 195.914-25.886 230.363 109.459 37.449 147.137-60.194 296.948-96.31 350.453zM48.506-3.121c0.058-1.453 1.711-28.879 37.683-28.879 26.172 0 158.916 72.339 227.133 260.102-103.219-182.607-253.060-227.919-264.816-231.223z" />
<glyph unicode="&#xe657;" d="M480 480l-224-64-224 64c0 0-2.25-25.849 0-64l224-70.045 224 70.045c2.249 38.151 0 64 0 64zM36.095 382.447c11.993-125.348 56.745-336.117 219.905-414.447 163.16 78.33 207.912 289.099 219.905 414.447l-219.905-82.679-219.905 82.679z" />
<glyph unicode="&#xe658;" d="M512 192l-64 128h-96v64c0 17.6-14.4 32-32 32h-288c-17.6 0-32-14.4-32-32v-256l32-32h40.583c-5.449-9.416-8.583-20.339-8.583-32 0-35.346 28.654-64 64-64s64 28.654 64 64c0 11.661-3.134 22.584-8.583 32h177.167c-5.449-9.416-8.584-20.339-8.584-32 0-35.346 28.654-64 64-64s64 28.654 64 64c0 11.661-3.135 22.584-8.584 32h40.584v96zM352 192v80h66.334l40-80h-106.334z" />
<glyph unicode="&#xe659;" d="M384 160.016l-91.41 91.411 219.41 164.575-64.005 63.998-274.26-109.721-86.35 86.353c-24.89 24.889-59.651 30.853-77.251 13.254-17.599-17.599-11.634-52.363 13.255-77.25l86.343-86.342-109.732-274.291 63.995-64.003 164.595 219.434 91.413-91.414v-127.99h63.997l31.996 95.994 95.994 31.998v63.996l-127.99-0.002z" />
<glyph unicode="&#xe65a;" d="M437.020 405.019c48.351-48.352 74.98-112.64 74.98-181.020s-26.629-132.667-74.98-181.019c-48.353-48.351-112.64-74.98-181.020-74.98s-132.667 26.629-181.020 74.98c-48.351 48.352-74.98 112.639-74.98 181.019s26.627 132.668 74.98 181.020c48.353 48.352 112.64 74.981 181.020 74.981s132.667-26.629 181.020-74.981zM414.392 65.607c31.529 31.53 52.493 70.804 61.136 113.531-6.737-9.918-13.181-13.597-17.172 8.603-4.11 36.195-37.354 13.074-58.258 25.93-22.002-14.829-71.453 28.831-63.049-20.412 12.967-22.211 70.004 29.725 41.574-17.271-18.137-32.808-66.321-105.466-60.053-143.129 0.791-54.872-56.067-11.442-75.657 6.76-13.178 36.46-4.491 100.187-38.949 118.043-37.401 1.624-69.502 5.023-83.997 46.835-8.723 29.914 9.282 74.447 41.339 81.322 46.925 29.483 63.687-34.527 107.695-35.717 13.664 14.297 50.908 18.843 53.996 34.875-28.875 5.095 36.634 24.279-2.764 35.191-21.735-2.556-35.739-22.537-24.184-39.479-42.119-9.821-43.468 60.952-83.955 38.629-1.029-35.295-66.111-11.443-22.518-4.286 14.978 6.544-24.43 25.508-3.14 22.062 10.458 0.568 45.666 12.906 36.138 21.201 19.605 12.17 36.080-29.145 55.269 0.941 13.854 23.133-5.81 27.404-23.175 15.678-9.79 10.962 17.285 34.638 41.166 44.869 7.959 3.41 15.561 5.268 21.373 4.742 12.029-13.896 34.275-16.303 35.439 1.671-29.791 14.267-62.638 21.804-96.646 21.804-48.811 0-95.235-15.512-133.654-44.195 10.325-4.73 16.186-10.619 6.239-18.148-7.728-23.027-39.085-53.938-66.612-49.562-14.293-24.648-23.706-51.803-27.73-80.264 23.056-7.628 28.372-22.725 23.418-27.775-11.748-10.244-18.968-24.765-22.688-40.661 7.505-45.918 29.086-88.238 62.635-121.788 42.308-42.307 98.559-65.607 158.392-65.607s116.084 23.3 158.392 65.607z" />
<glyph unicode="&#xe65b;" d="M416 393.847c38.233 0 72.546 20.811 96 36.553v-297.845c-23.454-15.743-57.767-36.555-96-36.555s-72.546 11.335-96 27.078c-23.454 15.74-57.767 27.075-96 27.075s-72.545-19.458-96-35.198v297.845c23.455 15.742 57.767 35.2 96 35.2s72.546-11.334 96-27.076c23.454-15.742 57.767-27.077 96-27.077zM64 480c17.673 0 32-14.327 32-32v-480h-64v480c0 17.673 14.327 32 32 32z" />
<glyph unicode="&#xe65c;" d="M512 281.475l-176.89 25.704-79.11 160.291-79.108-160.291-176.892-25.704 128-124.769-30.216-176.176 158.216 83.179 158.216-83.179-30.217 176.176 128.001 124.769z" />
<glyph unicode="&#xe65d;" d="M220.857 103.429l100 135.143q4.572 6.286 7 16.857t-1.714 24.286-17.572 22.572q-11.428 7.428-23.714 7.286t-21-5-15.572-12.857q-10.286-11.428-27.428-11.428-16.857 0-27.143 11.428-6.857 8-15.571 12.857t-21 5-24-7.286q-13.143-8.857-17.285-22.571t-1.715-24.286 7-16.857zM438.857 219.429q0-59.714-29.428-110.143t-79.857-79.857-110.143-29.428-110.143 29.428-79.857 79.857-29.428 110.143 29.428 110.143 79.857 79.857 110.143 29.428 110.143-29.428 79.857-79.857 29.428-110.143z" horiz-adv-x="439" />
<glyph unicode="&#xe65e;" d="M512 281.475l-176.89 25.704-79.11 160.291-79.108-160.291-176.892-25.704 128-124.769-30.216-176.176 158.216 83.179 158.216-83.179-30.217 176.176 128.001 124.769zM256 103.251l-111.731-58.74 21.338 124.415-90.393 88.111 124.92 18.152 55.866 113.198 55.868-113.198 124.918-18.152-90.394-88.111 21.339-124.415-111.731 58.74z" />
<glyph unicode="&#xe65f;" d="M96 480v-512l160 160 160-160v512z" />
<glyph unicode="&#xe660;" d="M256 320c-104.684 0-197.622-50.278-256-128 58.378-77.723 151.316-128 256-128s197.622 50.277 256 128c-58.378 77.722-151.316 128-256 128zM224 256c17.673 0 32-14.327 32-32s-14.327-32-32-32-32 14.327-32 32 14.327 32 32 32zM386.808 127.352c-19.824-10.129-40.826-17.931-62.423-23.188-22.244-5.418-45.251-8.164-68.385-8.164-23.133 0-46.141 2.746-68.384 8.162-21.597 5.259-42.599 13.061-62.423 23.188-31.51 16.101-60.111 38.205-83.82 64.649 23.709 26.444 52.31 48.55 83.82 64.649 16.168 8.261 33.121 14.973 50.541 20.020-9.944-15.121-15.734-33.217-15.734-52.668 0-53.020 42.981-96 96-96s96 42.98 96 96c0 19.451-5.791 37.547-15.733 52.67 17.419-5.048 34.372-11.76 50.541-20.021 31.511-16.099 60.109-38.204 83.819-64.649-23.71-26.443-52.309-48.55-83.819-64.648zM430.459 358.139c-54.36 27.777-113.056 41.861-174.459 41.861s-120.099-14.084-174.459-41.861c-29.386-15.016-56.866-33.952-81.541-56.038v-54.603c27.669 29.283 60.347 53.877 96.097 72.145 49.81 25.452 103.609 38.357 159.903 38.357s110.093-12.905 159.902-38.358c35.751-18.268 68.429-42.862 96.098-72.145v54.603c-24.675 22.087-52.154 41.023-81.541 56.039z" />
<glyph unicode="&#xe661;" d="M256 384c-111.659 0-208.441-65.021-256-160 47.559-94.979 144.341-160 256-160 111.657 0 208.439 65.021 256 160-47.558 94.979-144.343 160-256 160zM382.225 299.148c30.081-19.187 55.571-44.887 74.717-75.148-19.146-30.261-44.637-55.961-74.718-75.149-37.797-24.108-81.445-36.851-126.224-36.851-44.78 0-88.428 12.743-126.225 36.852-30.080 19.186-55.57 44.886-74.717 75.148 19.146 30.262 44.637 55.962 74.717 75.148 1.959 1.25 3.938 2.461 5.929 3.65-4.979-13.664-7.704-28.411-7.704-43.798 0-70.692 57.308-128 128-128s128 57.308 128 128c0 15.387-2.725 30.134-7.704 43.799 1.99-1.189 3.969-2.401 5.929-3.651zM256 275c0-26.51-21.49-48-48-48s-48 21.49-48 48 21.49 48 48 48 48-21.49 48-48z" />
<glyph unicode="&#xe662;" d="M512 300.922c0-43.181-18.609-82.015-48.245-108.922h0.245l-160-160c-16-16-32-32-48-32s-32 16-48 32l-159.755 160c-29.636 26.907-48.245 65.741-48.245 108.922 0 81.229 65.849 147.078 147.078 147.078 43.181 0 82.015-18.609 108.922-48.245 26.907 29.636 65.741 48.245 108.922 48.245 81.228 0 147.078-65.849 147.078-147.078z" />
</font>
</defs>
</svg>
